<?xml version="1.0" encoding="UTF-8" standalone="no"?>
<svg width="2385px" height="1800px" viewBox="0 0 2385 1800" version="1.1" xmlns="http://www.w3.org/2000/svg" xmlns:xlink="http://www.w3.org/1999/xlink">
    <!-- Generator: Sketch 3.8.3 (29802) - http://www.bohemiancoding.com/sketch -->
    <title>combinedgtclem</title>
    <desc>Created with Sketch.</desc>
    <defs></defs>
    <g id="Page-1" stroke="none" stroke-width="1" fill="none" fill-rule="evenodd">
        <g id="Group">
            <g id="Clemson_University_Tiger_Paw_logo" fill="#F56600">
                <g id="g10" transform="translate(755.172414, 718.912439) scale(1, -1) translate(-755.172414, -718.912439) translate(0.000000, 0.417141)">
                    <path d="M801.810469,1432.51209 C800.293736,1428.3248 802.808984,1424.97873 803.327201,1421.96538 C801.671435,1421.63894 800.906749,1419.18432 800.293736,1418.95204 C794.8019,1417.11264 787.780692,1420.36454 782.092945,1418.95204 C779.05316,1418.24892 774.749431,1412.07784 771.475816,1411.41867 C764.460928,1410.05011 760.719654,1414.62035 754.791757,1409.912 C751.947883,1407.74616 745.786157,1388.58002 744.174629,1384.29856 C742.518862,1385.19001 741.330755,1383.63939 739.624431,1384.29856 C737.918107,1384.95773 735.693565,1389.47775 733.5575,1390.32525 C719.666757,1395.92505 720.191294,1384.58106 713.839976,1379.77854 C711.520639,1378.08353 707.539216,1378.08353 704.73958,1376.76519 C704.73958,1376.76519 703.602031,1381.24127 703.222848,1382.79189 C705.023968,1384.43667 710.098702,1386.27607 710.806511,1388.81858 C711.236252,1390.51359 710.098702,1393.28837 710.806511,1394.84527 C709.47937,1395.88111 708.107991,1395.743 707.773045,1397.85862 C704.97973,1397.85862 701.37749,1397.24339 698.67265,1397.85862 C697.155917,1395.78694 693.174494,1392.77359 692.605719,1390.32525 C692.321332,1389.28941 693.26929,1386.84107 692.605719,1385.80523 C691.46817,1384.20439 685.546593,1382.98022 685.022056,1381.28521 C682.746957,1374.45496 686.538789,1369.28205 688.055521,1364.71181 L685.022056,1364.71181 C682.797515,1364.00242 678.342113,1356.09866 678.955125,1352.65843 C679.144717,1351.43425 683.031344,1349.03613 683.505323,1348.13841 C684.02986,1347.10257 684.219452,1342.81483 685.022056,1342.11172 C686.254401,1341.03193 688.5295,1341.9736 689.572254,1340.60504 C686.873734,1334.91107 687.107563,1332.41251 685.022056,1325.53831 C684.219452,1326.05309 681.280782,1325.53831 680.471858,1325.53831 C676.490435,1333.91918 675.498239,1330.81167 677.438393,1343.61839 C675.92166,1344.32778 672.698603,1347.81196 671.371462,1348.13841 C666.821264,1349.36258 660.6153,1346.86401 656.204136,1348.13841 C654.687403,1348.60924 653.834241,1353.6001 651.653938,1354.1651 C649.998172,1354.63593 644.354662,1352.99115 645.587008,1352.65843 C643.741649,1349.45675 641.510789,1346.34923 639.520077,1342.11172 C639.286247,1341.64088 636.631965,1341.03193 636.486612,1340.60504 C635.494416,1338.1567 636.770999,1333.31023 634.976199,1331.565 C632.176563,1329.02249 627.29142,1330.90584 624.352751,1328.55166 C622.178767,1326.90687 618.05199,1305.06012 621.319285,1302.93822 C626.014837,1299.92487 628.763915,1302.79383 631.936414,1304.44489 C634.306309,1305.71928 633.029725,1307.36407 633.453146,1310.47158 C634.451662,1310.14514 638.009664,1308.96491 638.009664,1308.96491 C637.150182,1304.44489 636.821557,1303.55344 636.486612,1298.4182 C634.830845,1298.09175 634.072479,1295.64341 633.453146,1295.40485 C628.85871,1293.85424 621.508877,1296.58508 616.769087,1295.40485 L615.252355,1292.39151 C612.787664,1290.84089 610.613681,1292.29734 607.668692,1290.88483 C609.330778,1298.93926 610.133382,1303.59739 612.21889,1310.47158 C609.375016,1311.65181 611.460523,1310.61597 610.702157,1313.48493 C603.402881,1314.04993 597.007325,1316.40411 592.501365,1310.47158 C586.579788,1302.79383 588.760092,1295.02818 592.501365,1287.87149 C589.4679,1284.24919 584.209894,1280.01168 583.40097,1274.31143 C583.122902,1272.52226 584.304689,1268.37891 583.40097,1266.77807 C583.072344,1266.30723 576.531435,1265.45973 575.823626,1265.27139 C575.349647,1262.35221 575.444443,1258.58553 574.300574,1254.72468 C574.584961,1254.68074 579.754491,1253.73279 580.367504,1253.21801 C582.02959,1251.85573 581.839999,1246.90882 583.40097,1245.68464 C580.089437,1245.77881 563.114671,1244.22819 559.139567,1241.16463 C555.341416,1238.33961 561.130279,1222.99038 559.139567,1217.05786 C558.046256,1213.9064 553.21167,1210.70472 551.549584,1208.01782 C544.680049,1197.09444 539.655872,1188.85796 531.83838,1179.39103 C530.504919,1177.84042 526.523496,1176.37769 525.771449,1173.36434 C521.03166,1154.86365 530.321647,1161.54951 534.871845,1159.81056 C535.914599,1159.42762 540.793422,1154.95782 542.449188,1153.78387 C539.655872,1147.89529 532.786338,1138.57275 537.90531,1129.67082 C538.80271,1128.06998 543.024283,1127.17854 543.972241,1125.15708 C544.964437,1122.94102 541.836176,1124.07102 542.449188,1120.63079 C543.921683,1111.78536 553.875241,1111.59075 562.173032,1111.59075 C561.269313,1111.2643 556.390489,1107.1649 556.106102,1107.07701 C541.456992,1102.78927 543.637296,1109.1424 537.90531,1095.01735 C531.124251,1103.91927 526.055837,1106.04117 512.120855,1108.5774 C510.976986,1106.22323 509.32122,1105.6645 507.564338,1104.06366 C510.313416,1097.23341 510.414531,1093.93756 513.637588,1087.49026 C511.217136,1085.88942 506.338312,1083.76752 504.530873,1081.46357 C502.824548,1079.38561 503.349085,1075.66915 501.497407,1073.92392 C499.936437,1072.51142 497.282155,1073.59748 495.436797,1072.42353 C493.490323,1071.2433 490.836041,1066.76723 489.369866,1064.88389 C489.982879,1063.84805 489.369866,1060.13159 489.369866,1058.85719 C497.048325,1056.92991 497.945725,1056.0824 507.564338,1057.3568 C506.717495,1055.70574 508.234228,1054.62595 507.564338,1052.83678 L504.530873,1051.32383 C501.263578,1046.3832 502.824548,1043.42007 501.497407,1036.2571 C502.451685,1035.74232 507.001883,1034.04731 507.564338,1033.24375 C511.836468,1027.41167 514.061009,1022.46476 518.187786,1016.67663 C515.198559,1014.69912 507.096679,1011.21494 506.053925,1007.63659 C505.245001,1005.04386 506.812291,1002.7399 506.053925,1000.10323 C510.035348,999.067387 517.043917,997.698826 521.221251,995.576928 C522.118651,995.156315 524.39375,991.439855 525.771449,991.063187 C528.425731,990.404018 530.650272,991.766301 533.355112,991.063187 C532.451392,987.622951 531.642468,984.283159 530.321647,979.009803 C526.523496,978.865414 526.055837,981.928982 521.221251,980.510198 C520.317531,980.27792 518.08667,976.699571 516.671053,975.996457 C522.453597,965.305357 515.956925,968.224536 531.83838,966.956419 C533.304555,962.95118 534.960321,958.336994 536.382258,954.903035 L537.90531,954.903035 C539.087098,948.54362 535.864041,946.333833 536.382258,939.836306 C536.767761,934.418561 541.551788,923.545404 542.449188,918.742884 C543.068521,915.258702 541.267401,911.535965 542.449188,908.196173 C542.6451,907.580948 545.103471,906.827612 545.482654,905.182827 C558.046256,909.608679 549.280805,902.590094 557.616515,912.716192 C559.278601,911.912633 560.365593,913.419306 562.173032,912.716192 C562.596454,912.571802 565.724715,908.428452 566.72323,908.196173 C573.25782,906.733444 574.205778,910.970962 580.367504,908.196173 C587.053767,905.182827 579.659696,900.706753 578.850772,897.649462 C578.383112,895.954455 579.470104,893.317777 578.850772,891.62277 C590.036675,883.662514 594.163452,879.048328 610.702157,879.569386 C611.561639,881.641061 612.21889,885.125243 613.735622,887.102751 C614.873172,888.703591 618.671323,888.797758 619.808872,890.116097 L619.808872,873.542694 C620.181736,871.703298 628.618561,861.48931 630.419681,858.475964 C634.4959,858.80241 638.382527,858.475964 642.553542,858.475964 C643.027521,859.46158 644.689607,864.314322 645.587008,864.502656 C659.237601,867.559947 662.890399,852.825941 669.85473,850.942599 C674.171098,849.812595 676.635788,851.790103 680.471858,852.449272 C681.944353,850.660098 682.702719,845.713188 685.022056,844.915907 C686.633584,844.39485 689.528016,845.763411 691.088987,844.915907 C691.373374,846.516747 693.888622,847.314029 694.122452,847.929253 C694.975614,850.515709 693.364085,852.869885 694.122452,855.462618 C692.751073,855.745119 685.970014,855.933454 683.505323,856.969291 C680.851041,858.143241 679.713492,865.255993 677.438393,866.009329 L674.404928,866.009329 C673.602323,867.654114 675.213852,870.485404 674.404928,872.036021 C675.447681,873.680806 678.057725,876.223316 678.955125,878.062713 C680.945837,876.273539 685.16741,875.991038 686.538789,873.542694 C687.297155,872.130188 686.06481,869.116842 686.538789,867.516002 C687.158121,865.20577 691.278578,863.372651 692.605719,861.48931 C695.500151,862.054313 698.767445,860.830141 701.706115,861.48931 C706.919883,862.713482 708.202786,868.740174 715.356709,869.022675 C723.559704,869.399343 731.282401,861.533255 742.657896,864.502656 C750.386913,866.574332 748.484677,876.461873 753.275024,879.569386 C758.583589,883.097512 766.021898,880.460834 772.992549,882.582732 C774.654635,883.147734 777.258359,886.299192 779.05316,887.102751 C779.05316,888.42109 778.446466,891.999438 779.05316,893.129443 C779.862084,894.774228 782.566923,894.165281 783.609677,896.142789 C790.719361,893.882779 799.724961,888.93587 807.877399,893.129443 C809.823873,894.165281 810.816069,899.482581 812.427597,900.662808 C813.94433,901.88698 816.788204,901.321977 818.500847,902.169481 C819.967022,902.966762 823.038406,907.442836 824.561458,908.196173 C828.113141,910.079514 831.715381,909.89118 835.172267,911.209519 C835.172267,911.209519 837.118741,918.272048 836.701639,920.249557 C836.126545,922.553511 831.05813,924.581242 830.634709,926.276249 C829.446601,930.702101 832.568543,930.086876 832.145121,933.809614 C834.281187,935.360231 835.222825,937.670463 836.701639,939.836306 C842.623216,939.032747 849.347397,937.199628 854.889791,939.836306 C858.213964,941.48109 857.221768,944.82716 859.446309,947.369671 C862.429216,950.897796 869.355629,953.816975 873.090583,956.409708 C872.433332,961.306396 870.922919,966.247027 871.58017,969.969765 C872.148945,973.35978 877.6471,976.56146 879.163833,979.009803 C881.103987,982.255428 880.58577,984.609605 882.197298,988.049841 C881.679081,988.426509 877.830372,990.498185 877.6471,991.063187 C876.939292,992.802139 878.500263,993.982366 877.6471,995.576928 C889.730404,1004.10219 892.005503,1008.66615 877.6471,1016.67663 C886.6527,1021.33476 894.470193,1026.09333 903.425235,1030.23041 C902.717427,1032.20792 903.425235,1035.64815 903.425235,1037.77005 C901.630435,1038.61128 899.026711,1041.76901 897.364625,1042.29007 C891.291374,1044.17341 887.550101,1042.10173 883.714031,1045.30341 C882.102503,1046.6657 882.810311,1050.29427 882.197298,1052.83678 C878.835208,1051.65655 879.877961,1057.02407 879.163833,1058.85719 C879.397663,1058.85719 887.651216,1058.29847 885.230764,1057.3568 C894.99473,1058.48053 912.013734,1059.66075 903.425235,1072.42353 C902.622631,1073.59748 897.743808,1074.25665 897.364625,1075.43687 C896.416667,1078.4 900.063145,1082.68146 898.875038,1087.49026 C897.882842,1091.30089 892.251972,1092.05422 891.291374,1093.51067 C888.169433,1098.21903 886.791734,1099.58759 892.808107,1102.55071 C892.049741,1112.86514 891.531524,1112.44453 897.364625,1117.61744 C897.69325,1117.95016 901.440844,1117.61744 901.914823,1117.61744 C902.154972,1119.31245 902.053856,1126.23687 903.425235,1128.17043 L912.531951,1132.68417 C910.446444,1138.99964 907.981753,1145.07028 909.492166,1149.25757 C909.877669,1150.48174 913.808534,1154.15426 914.048684,1155.28426 C914.617458,1158.77472 911.963176,1157.50033 912.531951,1159.81056 C910.775069,1159.42762 906.604054,1158.29761 906.46502,1158.29761 C902.673189,1145.63528 904.095126,1141.25337 895.847892,1152.27092 C891.815911,1151.80008 892.28989,1150.34363 889.780961,1149.25757 C889.780961,1149.25757 889.547132,1158.7245 889.780961,1161.31096 C901.914823,1164.09202 897.364625,1162.02035 903.425235,1170.35099 C904.752377,1169.40932 906.370225,1170.96622 907.981753,1170.35099 C909.542724,1169.74205 909.877669,1165.12786 911.008899,1164.3243 C918.030107,1159.38367 927.465448,1162.77369 933.766208,1164.3243 C933.05208,1167.24976 934.575132,1170.54561 933.766208,1173.36434 C933.241671,1175.10957 928.223814,1178.6377 927.699277,1180.89771 C927.269536,1182.59271 926.839796,1189.18441 929.20969,1188.43107 L929.20969,1191.44442 C928.881065,1192.38609 924.855404,1195.4936 924.665812,1195.96444 C924.286629,1196.86216 925.044995,1199.68717 924.665812,1200.48445 C935.895953,1205.38114 937.368448,1206.22865 942.866604,1217.05786 L945.900069,1220.0712 C946.374048,1223.36705 943.245787,1225.86562 944.383336,1230.61791 C944.945791,1233.25459 949.976288,1236.50649 950.450267,1239.65795 C950.873688,1242.99774 947.890781,1246.67026 948.927214,1251.71134 C949.546547,1254.72468 955.803069,1259.8097 956.510878,1262.25805 C957.414598,1265.55389 955.948423,1269.46497 956.510878,1272.80476 C946.55732,1278.59917 947.031299,1276.15083 945.900069,1290.88483 C948.364759,1292.43545 946.797469,1292.20317 947.410482,1295.40485 L950.450267,1295.40485 C950.589301,1292.39151 950.165879,1287.82754 950.450267,1283.35147 C950.728334,1283.40169 958.880772,1283.63397 956.510878,1284.85814 C957.085972,1286.64732 959.544343,1292.57984 961.067395,1293.89818 C961.250667,1294.13674 961.111633,1298.1357 961.067395,1298.4182 C960.448063,1300.86654 956.561435,1303.82967 955.000465,1305.95156 C956.23281,1307.92907 958.457351,1310.18908 959.544343,1311.97826 C960.593416,1313.81765 963.765915,1318.28745 964.100861,1319.51162 C965.712389,1326.66832 961.162191,1332.65106 961.067395,1336.08502 C960.827246,1342.11172 964.758111,1345.21923 964.100861,1352.65843 L961.067395,1357.17845 C957.604189,1373.84602 960.302709,1371.25956 944.383336,1375.25852 C943.669208,1372.24518 942.05768,1366.64537 941.343551,1363.20514 C938.411202,1362.4518 939.447636,1364.52348 938.316406,1361.69846 C933.007842,1361.93702 926.27734,1362.96658 923.149079,1363.20514 C923.81265,1374.73746 923.054284,1378.88709 920.115614,1388.81858 C915.70445,1389.80419 908.215583,1393.94754 901.914823,1391.83192 C900.770953,1391.4992 898.976153,1388.11546 897.364625,1387.31191 C897.364625,1383.82772 897.882842,1380.2996 897.364625,1376.76519 L894.331159,1376.76519 C892.808107,1379.92293 894.331159,1381.56771 892.808107,1384.29856 C890.684681,1388.0213 883.044141,1391.26692 882.197298,1396.35194 C880.724804,1404.8772 886.368313,1405.10948 885.230764,1412.92535 C884.895818,1415.04097 871.959353,1432.13543 870.063437,1432.51209 C861.67085,1434.30127 860.438505,1428.65125 856.412844,1426.4854 C851.477143,1423.94289 845.751477,1422.57433 841.245517,1420.45871 C843.710208,1410.57117 849.543309,1392.15837 830.634709,1396.35194 C823.948445,1397.85862 825.793804,1402.42886 823.038406,1408.40533 C822.570747,1409.39094 818.684119,1410.42678 818.500847,1411.41867 C817.116829,1418.34309 822.191564,1424.36978 818.500847,1431.00542 C816.314225,1434.86627 810.866627,1433.69232 806.360667,1435.52544 C806.025722,1434.67794 802.094856,1433.40982 801.810469,1432.51209" id="path3860"></path>
                    <path d="M349.830464,1242.6713 C347.650161,1240.55568 349.830464,1235.04377 348.313731,1232.12459 C346.891794,1229.48791 338.88471,1225.62706 333.146405,1227.60457 C333.146405,1227.60457 330.302531,1235.65899 325.562742,1236.64461 C321.151577,1237.58628 315.46383,1235.2321 313.42888,1235.13793 L311.912148,1223.08455 L304.328485,1214.04451 L308.878683,1212.53784 C311.817352,1208.06804 312.196535,1206.27887 314.945613,1200.48445 C313.334085,1201.23779 310.540769,1199.91945 308.878683,1200.48445 C303.664914,1202.27363 298.027725,1217.52869 292.194624,1220.0712 C284.800552,1223.36705 272.053678,1222.99038 263.376704,1224.59122 C261.815733,1222.4756 259.490076,1221.53393 257.309773,1220.0712 C257.360331,1220.0712 257.309773,1215.78974 257.309773,1215.55118 C259.205689,1215.08035 259.730226,1211.7845 257.309773,1212.53784 C256.981148,1212.63201 256.03319,1215.08035 255.79304,1215.55118 C251.577788,1215.55118 246.313461,1215.41307 242.142447,1215.55118 C240.341327,1205.66364 236.075516,1201.1499 231.525318,1194.45776 C229.67996,1195.87027 227.259508,1194.60215 225.458388,1195.96444 C224.845375,1196.44155 222.570276,1201.57051 222.424922,1201.99113 C232.61863,1204.81614 205.317442,1201.42613 216.357992,1200.48445 C213.893301,1199.78134 212.142739,1200.44051 210.291061,1198.97778 L201.190666,1188.43107 C198.820771,1184.24378 200.053116,1176.18935 195.123735,1173.36434 C192.848636,1172.09622 186.307727,1172.19039 184.506607,1171.85767 C177.068297,1152.46553 178.111051,1165.3162 166.305815,1159.81056 C164.365661,1158.95678 163.461941,1153.68342 161.755617,1152.27092 C160.194646,1151.09697 157.350773,1151.66197 155.688687,1150.77052 L154.171954,1147.75718 C147.542568,1143.51338 141.279727,1144.97611 134.45443,1144.73755 C133.55703,1142.62193 132.988255,1138.24003 131.420964,1135.69752 C128.81724,1131.64833 123.363322,1132.35772 119.287103,1129.67082 C114.073335,1126.33103 101.705644,1106.78823 98.0591662,1105.56406 C97.5788676,1105.42594 91.6572906,1107.25906 88.9587704,1107.07701 C83.3594991,1106.74428 73.8356821,1103.77488 69.2412462,1102.55071 C69.2412462,1094.64696 69.9048167,1089.22921 70.7579788,1082.96396 C67.2505346,1083.86169 71.2761958,1081.26895 67.7245136,1081.46357 L64.6910483,1084.47691 C59.5720757,1085.8392 53.7389748,1080.94251 52.5571872,1078.45022 C50.041939,1073.22081 52.1780041,1068.5564 52.5571872,1063.38349 C55.1609116,1063.38349 59.1423348,1064.18077 61.657583,1063.38349 C60.2798842,1046.15092 62.131562,1045.91236 46.483937,1046.81009 C46.0605158,1045.81819 42.7426632,1042.99318 41.9400588,1042.29007 C43.6906211,1036.35754 43.2671999,1033.62042 44.9735241,1027.21706 C44.3099535,1027.31751 38.4326146,1026.09333 35.8731283,1025.71667 C35.8731283,1025.71667 36.5366988,1033.53253 20.7058019,1022.70332 C22.9303431,1006.07969 15.1570884,1000.3355 17.6723367,982.023149 C13.2169346,979.474361 8.09796192,975.619789 4.02174297,972.983111 C4.53995996,970.346434 3.45296823,968.130369 4.02174297,965.449746 C4.78010929,961.676786 9.51989877,956.69221 10.0886735,951.889689 C10.6574482,946.660279 10.0381158,942.190482 8.57194087,938.329633 C8.52138312,938.235466 5.53847561,936.82296 5.53847561,936.82296 C3.83215139,927.50042 7.62398298,916.388707 8.57194087,908.196173 C10.4172989,907.580948 12.4585682,908.29034 13.1221388,906.6895 C13.7857093,905.08866 12.2689767,902.263648 13.1221388,900.662808 C12.0288273,899.388414 7.95260838,897.649462 7.05520824,896.142789 C2.12582718,888.232756 6.81505891,881.120004 5.53847561,872.036021 C5.53847561,872.036021 2.83363574,870.717682 2.50501034,870.529348 L2.50501034,867.516002 C2.07526943,865.161826 0.609094547,860.120749 2.50501034,855.462618 C2.8841935,854.520948 6.20204613,853.296776 7.05520824,852.449272 L7.05520824,849.435926 C22.7407516,848.349866 22.8861051,848.211755 31.3229304,858.475964 C32.4604799,858.099296 35.677217,856.875124 35.8731283,856.969291 C35.2095577,854.847393 33.0292546,851.978437 32.839663,850.942599 C32.3656841,848.726534 34.3563956,841.902561 34.3563956,841.902561 C35.0199662,841.431726 38.6222062,839.736719 38.9065935,838.889215 C40.0378233,835.405034 38.5716484,830.552292 38.9065935,826.835832 C25.0158505,833.239192 15.9660125,831.920853 22.2225346,814.782448 C22.9809009,812.66055 22.077181,811.342211 23.7392672,810.262429 C26.4883451,808.523477 30.7035979,810.356596 34.3563956,808.755756 C35.2980338,808.328865 37.9080779,802.917398 38.9065935,802.729064 C48.6705599,800.93989 52.6014253,810.777209 55.5906525,816.289121 C57.2969767,815.441617 59.7616673,813.369942 61.657583,813.275775 C56.3932569,802.823231 58.4787642,804.373848 61.657583,795.195699 C61.3226379,795.051309 61.657583,791.052348 61.657583,790.67568 C60.848659,792.885467 59.9954969,786.770886 60.1408504,786.155661 C62.0810042,777.20979 74.5434907,778.057294 82.8918399,778.622296 C82.417861,777.868959 83.1762273,775.000003 82.8918399,774.102277 C81.2739918,770.053093 71.3267536,765.721408 67.7245136,763.555566 C68.6219137,761.013055 66.7765557,758.608656 67.7245136,756.022201 C68.2427306,754.515528 76.58476,747.409054 78.3353223,746.982163 C84.5981641,745.47549 95.7335095,749.430507 99.5695792,751.502182 C100.991516,752.299463 103.506764,757.202428 105.642829,757.528874 C110.471095,758.326155 112.177419,755.645533 116.253638,754.515528 C116.158842,754.515528 116.253638,750.227788 116.253638,749.995509 C97.345038,747.923834 92.3714189,743.259425 102.603044,728.902087 C110.711244,730.973763 112.657718,729.89398 120.803836,731.915433 C121.423169,726.974801 122.800867,717.225372 126.877086,715.34203 C129.619844,714.117859 134.359634,715.768921 137.487895,715.34203 C153.609499,713.176188 153.982362,706.25177 164.789082,721.368722 C172.562337,720.521219 177.352684,719.20288 182.996194,721.368722 L186.029659,724.382068 C191.098074,725.085182 196.311842,721.651224 199.673933,721.368722 C203.990301,721.086221 205.507034,722.875395 208.774329,722.875395 C209.722287,726.686022 210.480653,729.988147 211.807794,734.928779 C209.393661,736.856065 206.928971,737.797736 204.224131,739.448798 L204.224131,742.462144 C209.248308,744.816321 214.936055,748.532781 219.391457,749.995509 C224.605226,751.740739 232.713426,752.443853 237.592249,749.995509 L240.625714,746.982163 C248.443207,745.852158 252.336154,750.704901 257.309773,751.502182 C260.722421,752.117407 266.271135,750.183843 269.443634,751.502182 C274.088628,753.523635 273.80424,762.896397 277.027297,766.568912 C280.395708,770.523929 288.023609,772.357047 292.194624,775.60895 C290.772687,779.281465 296.744822,775.60895 296.744822,775.60895 C298.874567,761.910781 296.55523,764.214735 310.395415,762.048893 C312.670514,766.330355 316.411788,775.46456 322.529276,775.60895 C325.183558,775.703117 323.382438,773.537275 327.079474,774.102277 C327.837841,771.986657 326.27055,768.734754 327.079474,766.568912 C327.363862,765.765353 330.871306,763.599511 331.629672,762.048893 C333.291758,762.708062 335.94604,761.622002 337.696603,762.048893 C342.436392,763.367232 344.995878,774.290611 346.796998,778.622296 C363.765445,779.331688 360.258001,777.774792 366.514523,789.169007 C373.289262,788.271281 376.803026,788.748394 383.198582,789.169007 C383.527207,790.820069 385.998217,791.567128 386.232047,792.182353 C387.369596,795.4782 385.094497,799.433217 386.232047,802.729064 C387.129447,805.409686 393.531323,807.952197 395.332443,810.262429 C397.272597,812.848884 397.556984,817.281014 399.882641,819.302467 C404.338043,823.301428 411.302373,823.489762 413.533234,829.849177 C414.670784,833.188969 412.869664,836.911707 413.533234,840.395888 C413.817622,842.185063 417.893841,847.646752 418.083432,849.435926 C419.220982,860.924308 412.534719,861.960146 405.949571,866.009329 C403.95886,863.372651 401.91759,861.068697 399.882641,858.475964 C403.674472,857.766572 395.332443,855.462618 395.332443,855.462618 C396.75438,863.60493 394.144335,863.372651 402.916106,869.022675 C406.42355,871.326629 408.698649,871.094351 412.016502,873.542694 C413.015017,874.339975 413.86186,877.541655 415.049967,878.062713 C420.213178,880.555001 426.520257,878.251047 431.734026,881.076059 C434.148159,882.438343 432.871575,887.146696 434.767491,888.609424 C432.397596,892.941109 434.198716,893.600278 430.217293,896.142789 C427.942194,897.59924 425.521742,897.931963 422.63363,899.156135 C424.245159,900.235917 425.33215,904.473435 427.183828,905.182827 C431.544434,906.921779 435.949279,904.755936 439.317689,906.6895 C442.300597,908.478674 440.309885,911.397853 442.351154,914.222865 C443.627738,916.106206 448.74671,916.997654 449.934818,918.742884 C451.306197,920.908726 456.85491,937.149405 456.001748,941.342979 C455.477211,943.7411 450.737422,945.674663 449.934818,947.369671 C448.272731,950.897796 449.599872,953.302195 448.418085,957.916381 C450.408796,958.010548 450.642626,960.741393 451.45155,960.929727 C454.674607,961.777231 455.812156,958.336994 457.518481,957.916381 C466.713672,955.844706 468.653826,961.212229 472.685807,963.943073 C471.927441,970.390378 470.928925,978.350634 471.169074,983.523544 C463.964594,987.152115 460.975367,984.892106 460.551946,995.576928 C460.077967,1005.94158 465.715157,1005.28241 466.618876,1009.14326 C467.326685,1012.29472 465.146382,1017.56808 465.102144,1018.17702 C463.964594,1031.46086 468.79918,1032.82314 465.102144,1045.30341 C467.137093,1046.05047 470.549742,1045.30341 472.685807,1045.30341 C477.236005,1054.9524 476.66723,1050.99738 474.20254,1061.87054 C472.16127,1062.48576 469.412192,1062.25349 468.135609,1063.38349 C464.767199,1066.48473 461.733733,1071.99664 459.035213,1075.43687 C465.576123,1080.60979 470.221116,1085.74503 477.236005,1090.5036 C476.427081,1093.134 477.994371,1095.44424 477.236005,1098.03697 C476.951618,1098.92842 473.014432,1102.50677 472.685807,1104.06366 C471.26387,1110.60513 472.022236,1114.79871 471.169074,1120.63079 C472.875399,1120.58684 479.416308,1119.50706 483.302935,1119.13039 C483.302935,1119.13039 485.104055,1126.09248 484.819668,1128.17043 C484.674315,1128.92377 477.56463,1147.42445 477.236005,1147.75718 C475.719272,1149.16341 471.213312,1149.77863 469.652342,1150.77052 C471.876883,1157.73261 477.046413,1170.26311 468.135609,1173.36434 C465.525565,1174.31229 463.111432,1172.47289 460.551946,1173.36434 C459.458634,1170.54561 458.700268,1167.95287 457.518481,1165.83725 C449.934818,1152.69781 456.19134,1164.98347 449.934818,1162.82391 C449.934818,1165.55475 450.598388,1169.27121 449.934818,1171.85767 C450.408796,1172.14017 452.873487,1173.08184 452.968283,1173.36434 C453.631853,1175.58041 454.485015,1175.25396 456.001748,1176.37769 C454.769403,1179.67353 453.391704,1183.11377 452.968283,1185.41772 C450.263443,1184.14961 440.739626,1180.19459 437.800956,1180.89771 C437.466011,1180.99187 434.009125,1185.22939 433.250759,1185.41772 C431.493877,1185.88856 428.839594,1184.80878 427.183828,1185.41772 C425.995721,1184.28772 422.444039,1178.3552 421.116897,1177.88436 C419.461131,1177.36958 416.5667,1178.73186 415.049967,1177.88436 C420.358531,1177.88436 412.06074,1197.37694 412.016502,1197.47111 C419.789756,1200.34634 420.124702,1201.23779 425.667095,1205.00447 C424.952967,1207.64115 425.667095,1211.36389 425.667095,1214.04451 C419.03139,1215.31891 417.704249,1216.21035 408.983036,1215.55118 C407.036563,1219.5062 407.510542,1219.03537 404.432838,1221.57788 C399.787845,1218.75286 399.174832,1216.86952 392.298977,1214.04451 C390.542095,1198.7455 391.490053,1198.93384 404.432838,1198.97778 C401.304577,1192.71881 401.873352,1190.36463 399.882641,1182.40438 C396.090809,1187.39523 390.592653,1193.04526 384.715314,1195.96444 L383.198582,1195.96444 C380.594857,1201.19385 382.484453,1208.53888 381.681849,1214.04451 C384.904906,1214.65974 384.525723,1214.04451 386.232047,1215.55118 C388.456588,1217.62914 393.626118,1219.17976 395.332443,1221.57788 C396.040251,1222.61371 396.564788,1227.88707 395.332443,1226.0979 C394.858464,1226.33645 393.15214,1231.70397 392.298977,1232.12459 C385.094497,1235.84733 374.148744,1230.66814 368.031255,1232.12459 C363.714887,1233.21065 361.490346,1242.81569 357.414127,1244.17797 L354.380662,1244.17797 C353.527499,1242.76547 350.873217,1243.75736 349.830464,1242.6713" id="path3858"></path>
                    <path d="M1290.19206,1223.08455 C1288.48573,1220.49809 1289.48425,1219.03537 1288.67532,1215.55118 C1281.74891,1217.39058 1278.8608,1216.77536 1271.99127,1218.56453 C1262.75184,1198.83967 1266.06969,1204.39553 1243.17335,1203.50408 L1235.58968,1200.48445 C1234.40157,1200.25218 1232.89116,1201.80279 1234.07295,1201.99113 C1231.9432,1202.9328 1228.57479,1201.09968 1226.48929,1201.99113 C1224.54913,1202.83863 1224.21419,1212.39973 1215.87848,1209.52449 C1215.68257,1209.48055 1212.21936,1203.7803 1215.87848,1205.00447 C1215.87848,1205.00447 1217.06027,1197.6155 1217.38889,1195.96444 C1210.42456,1191.06775 1211.51155,1192.81298 1206.77176,1185.41772 C1202.2658,1186.73606 1200.66059,1186.45356 1197.67137,1188.43107 C1191.93306,1192.24798 1194.97285,1195.54382 1196.15463,1194.45776 C1196.67285,1197.80383 1200.61004,1197.65944 1199.1881,1203.50408 C1198.80892,1204.91031 1193.93009,1206.79365 1193.12117,1208.01782 C1191.84459,1209.90116 1192.31856,1211.64639 1191.60444,1214.04451 C1191.08622,1213.95034 1186.25163,1215.17452 1184.02077,1215.55118 C1183.40776,1208.06804 1182.78843,1200.34634 1184.02077,1191.44442 C1180.33006,1191.06775 1170.85048,1191.58881 1165.8263,1189.93774 C1163.63968,1189.27857 1158.89989,1182.69316 1156.71959,1180.89771 C1154.82367,1181.74521 1151.0824,1180.89771 1149.13592,1180.89771 C1148.42811,1183.34605 1148.14373,1186.03295 1147.62551,1189.93774 C1143.3597,1191.0238 1137.19165,1195.07299 1129.42472,1192.95109 C1128.47044,1192.71881 1125.34218,1188.6194 1124.8682,1188.43107 L1121.83473,1188.43107 C1110.83842,1177.79019 1127.85743,1175.39207 1133.9686,1171.85767 C1135.86451,1170.77789 1138.14593,1167.0112 1140.04185,1165.83725 C1137.52028,1164.13597 1135.86451,1163.05619 1133.9686,1161.31096 C1127.33289,1165.97537 1119.94514,1171.481 1108.18414,1167.33765 C1105.62465,1166.49015 1103.16628,1162.02035 1100.60048,1161.31096 C1097.70605,1160.55762 1094.39451,1161.88224 1091.5064,1161.31096 C1089.93911,1167.2937 1086.61494,1179.15875 1079.37254,1179.39103 C1077.00265,1179.4852 1074.91714,1177.03686 1071.78888,1176.37769 C1071.40337,1174.77685 1068.945,1174.02351 1068.74909,1173.36434 C1067.33348,1169.36538 1067.52307,1162.77369 1067.23868,1159.81056 C1056.14757,1156.97927 1048.60815,1153.78387 1035.38097,1152.27092 C1033.15643,1146.34467 1031.69026,1142.33943 1029.32036,1137.20419 L1026.2869,1137.20419 L1026.2869,1140.21754 C1023.72741,1147.4684 1016.32702,1144.31694 1011.11957,1143.23088 C1009.17942,1131.7425 1006.19019,1129.38832 1002.01918,1120.63079 C989.082711,1124.91853 991.970823,1124.67997 982.301652,1120.63079 C982.301652,1117.89994 982.914665,1114.32159 982.301652,1111.59075 L986.84553,1110.09035 C986.794973,1110.09035 986.84553,1105.80261 986.84553,1105.56406 C979.167071,1106.70034 974.907581,1105.80261 968.644739,1105.56406 C968.082284,1102.17404 964.429486,1102.60093 965.617593,1096.52402 C965.668151,1096.19757 970.40794,1090.64172 970.167791,1090.5036 C965.851423,1088.70815 963.721677,1078.45022 962.577808,1073.92392 C950.020526,1070.77247 944.136867,1071.14913 935.282941,1064.88389 C935.801157,1061.49387 934.101153,1057.58908 935.282941,1054.33717 C936.319374,1051.51844 943.903038,1049.30238 945.900069,1046.81009 C948.269964,1043.84069 948.7945,1036.73421 951.966999,1034.7567 C955.430206,1032.58458 958.741739,1035.22754 961.067395,1034.7567 C961.396021,1034.70648 962.672604,1031.97564 964.100861,1031.74336 C964.050303,1031.64919 961.396021,1022.79121 962.577808,1022.70332 C952.485216,1023.82705 949.502309,1023.68894 939.833138,1021.19037 C940.496709,1028.2529 942.247271,1038.42922 935.282941,1040.7834 C933.576616,1041.39234 930.776981,1040.074 929.20969,1040.7834 C928.836827,1039.18256 926.372136,1038.42922 926.182545,1037.77005 C923.762092,1030.80169 929.44984,1027.97668 927.699277,1021.19037 C926.707081,1017.56808 906.03528,1000.66195 901.914823,995.576928 C903.715943,993.881921 902.622631,992.758194 903.425235,989.550236 C907.078033,988.614844 913.246079,985.789832 917.082149,985.036495 C899.633404,980.748755 891.063865,974.583951 898.875038,957.916381 C893.617031,954.193644 880.58577,940.212974 882.197298,930.796268 C882.525924,928.724592 887.739692,926.276249 888.264229,924.769576 C888.839323,923.118513 887.512182,920.343724 888.264229,918.742884 C884.940057,916.859543 867.788338,904.241156 867.029972,902.169481 C865.980899,899.482581 867.642985,895.998399 867.029972,893.129443 C867.693543,892.985053 871.959353,892.281939 873.090583,891.62277 C874.234452,890.963601 873.716235,887.667753 874.619955,887.102751 C872.199502,883.053567 865.140376,877.686045 863.996507,873.542694 C862.245944,867.277446 866.84038,855.933454 860.956722,853.955945 C857.550393,852.869885 865.513239,844.915907 865.513239,844.915907 L865.513239,843.409234 C866.555993,842.894454 869.444105,838.186101 870.063437,837.382542 C871.624408,835.2167 872.667162,834.557531 874.619955,832.862523 C871.390578,828.198115 863.611004,820.338304 867.029972,810.262429 C867.364917,809.176369 870.771246,807.387194 871.58017,805.74241 C875.801742,806.445524 879.113275,807.154916 882.197298,807.249083 L882.197298,792.182353 C882.525924,795.4782 882.285774,776.406231 883.714031,774.102277 C884.655669,772.551659 891.013307,772.357047 892.808107,771.088931 C893.85718,770.335594 894.419635,765.953687 895.847892,765.062239 C899.311098,762.940341 906.224871,761.622002 909.492166,760.54222 C909.492166,756.631148 908.120787,749.148006 909.492166,745.47549 C911.110014,741.049638 918.358732,741.426307 923.149079,739.448798 C924.665812,741.664863 927.465448,743.259425 929.20969,745.47549 C930.593709,747.314887 931.206722,749.713008 932.249475,751.502182 C933.48182,747.873611 936.749115,737.282956 939.833138,734.928779 C945.141703,730.835651 950.728334,732.480436 958.03393,733.422106 C957.370359,732.386269 958.274079,730.032092 958.03393,728.902087 C957.604189,727.301247 951.72685,722.643117 950.450267,721.368722 C951.821646,719.441437 952.63057,715.768921 953.483732,713.835357 C958.457351,713.835357 962.773719,714.494527 968.644739,713.835357 C971.014633,713.596801 974.711669,709.503673 980.78492,710.822011 C982.105741,711.154735 985.524709,716.428091 986.84553,716.848703 C988.507616,717.463928 991.256694,716.189534 992.918781,716.848703 C1001.58944,704.657208 995.952246,703.991761 1014.15304,700.275301 C1019.22145,707.48222 1023.81589,722.831451 1038.41444,719.862049 C1039.27392,719.71766 1042.87616,714.212026 1044.48137,713.835357 C1050.12488,712.65513 1053.25314,717.08726 1059.65502,715.34203 C1061.12119,714.965362 1062.82752,710.162842 1064.20521,709.315338 C1066.61935,707.85261 1069.08404,709.365561 1071.78888,707.808666 C1073.29929,706.96744 1073.53944,702.6797 1074.81602,701.788251 C1077.42607,699.948855 1096.19563,692.603824 1102.12353,694.248609 C1104.72725,695.04589 1106.3451,700.984692 1109.70719,701.788251 C1117.80907,703.809704 1121.55667,698.348015 1129.42472,700.275301 C1134.77752,701.637584 1138.19017,712.046183 1140.04185,716.848703 C1160.7958,714.073914 1153.92627,716.377868 1165.8263,724.382068 C1168.24043,726.077075 1171.17278,725.744352 1173.40996,727.395414 C1174.73079,728.431252 1176.38655,732.951271 1177.96016,733.422106 C1184.11557,735.443559 1191.32005,731.871489 1197.67137,733.422106 C1200.32565,734.12522 1203.07473,738.086515 1205.26135,739.448798 C1204.78105,741.947364 1203.6435,746.228827 1203.74462,746.982163 C1200.13606,748.626948 1196.24943,751.458238 1193.12117,753.008855 C1198.1959,752.632187 1205.21079,751.031347 1208.28849,751.502182 C1213.64762,752.349686 1227.1023,762.65784 1227.9997,768.075585 C1228.76439,772.972272 1221.04169,778.95502 1227.9997,781.635642 C1231.70305,783.09837 1237.63095,781.026695 1241.66293,781.635642 C1245.21461,782.200644 1252.08415,786.482107 1255.30721,787.662334 C1254.59308,789.639842 1255.30721,793.080079 1255.30721,795.195699 C1244.97447,800.042164 1242.98375,800.418832 1232.55622,793.689026 L1231.03948,790.67568 C1225.68036,789.784232 1226.72312,793.456747 1223.46214,793.689026 C1223.835,795.99298 1225.02311,800.701333 1224.97255,801.222391 C1236.96106,800.092386 1242.79416,800.092386 1249.24028,807.249083 C1260.71057,820.055803 1254.22021,823.728318 1240.13356,828.342505 C1240.94248,830.037512 1239.42575,831.123572 1240.13356,832.862523 C1240.75921,834.557531 1245.5938,837.238153 1246.20049,838.889215 C1246.77559,840.584223 1245.499,843.315067 1246.20049,844.915907 L1249.24028,844.915907 C1249.53098,844.771518 1249.24028,839.454218 1249.24028,838.889215 C1251.23099,837.897322 1252.79196,837.897322 1253.79679,835.875869 C1261.89867,838.556492 1275.59351,843.924014 1276.54146,852.449272 C1277.8686,865.35016 1262.08827,865.023714 1253.79679,864.502656 C1257.34848,873.115803 1258.43547,877.780212 1256.82394,888.609424 C1260.41986,889.927763 1262.08827,889.312538 1265.91802,890.116097 C1266.25296,891.760882 1268.71765,892.514218 1268.9578,893.129443 C1271.70688,901.133643 1268.5723,900.756975 1273.508,906.6895 C1275.39759,909.043676 1278.72177,910.688461 1281.09166,912.716192 C1280.71248,911.397853 1278.15299,907.486781 1278.05188,906.6895 C1277.29351,901.698646 1280.90207,900.424251 1279.58125,896.142789 C1279.05671,894.636116 1273.22361,891.246102 1271.99127,890.116097 C1272.65484,888.182533 1271.99127,884.748574 1271.99127,882.582732 C1279.42958,881.170226 1278.67753,875.802704 1287.15859,884.089405 C1289.86343,886.82025 1288.67532,889.080259 1290.19206,893.129443 C1291.61399,892.231717 1294.64114,893.788612 1296.25267,893.129443 C1297.44078,892.658608 1298.82479,886.82025 1299.29245,885.596078 C1305.30883,888.465035 1313.12632,889.174426 1315.97019,894.636116 C1316.64008,895.998399 1320.62151,916.055984 1320.52671,917.236211 C1320.29288,919.728499 1316.39993,922.038731 1317.49324,927.782922 C1317.49324,927.782922 1324.3691,939.691916 1325.07691,941.342979 C1319.8189,942.755484 1318.58024,944.68277 1312.94305,945.85672 C1313.74565,946.377777 1312.08988,949.905903 1312.94305,950.383016 C1315.16759,951.701355 1318.20737,951.368632 1320.52671,951.889689 C1320.42559,953.578419 1319.52819,960.973672 1320.52671,963.943073 C1320.90589,965.21119 1325.44977,967.565366 1326.59364,968.463092 C1323.04196,975.946235 1322.13824,980.27792 1319.00998,988.049841 C1322.27727,989.600459 1325.12747,989.085679 1328.11037,991.063187 C1329.29848,991.904413 1331.23863,996.568821 1332.66057,997.089879 C1337.4446,999.017165 1342.00112,997.184046 1346.30484,998.590274 C1349.1108,999.582167 1351.0004,1003.16052 1355.41156,1003.11657 C1364.74579,1003.01613 1366.69226,993.511531 1369.06215,986.53689 C1370.43353,987.340449 1374.13689,989.600459 1375.12908,989.550236 C1374.50975,997.648604 1375.55251,1000.90051 1376.64582,1007.63659 C1376.9302,1009.41949 1375.21756,1011.49744 1375.12908,1010.64994 L1375.12908,1015.16995 C1380.34285,1019.26308 1385.03208,1023.16788 1390.29641,1027.21706 C1389.72764,1030.14252 1391.04846,1033.43836 1390.29641,1036.2571 L1387.26295,1039.27044 C1387.26295,1039.27044 1385.88525,1042.00129 1385.74621,1042.29007 C1380.81683,1041.58068 1375.26812,1039.32067 1370.57889,1040.7834 C1369.82052,1041.01567 1367.26103,1044.73213 1366.02869,1045.30341 C1369.58669,1051.04133 1370.52833,1053.06906 1375.12908,1057.3568 C1373.08782,1065.26055 1367.78557,1087.58443 1369.06215,1095.01735 C1370.00379,1100.90593 1379.3949,1105.382 1381.19602,1110.09035 C1385.55662,1121.99935 1377.45474,1149.3078 1370.57889,1152.27092 C1363.36809,1155.37843 1354.98182,1150.48174 1347.8279,1153.78387 C1345.5528,1154.86365 1346.30484,1159.23928 1344.79443,1161.31096 C1341.66617,1165.5987 1335.31485,1164.18619 1331.14384,1167.33765 C1326.30925,1170.96622 1321.13972,1189.46691 1315.97019,1191.44442 C1314.36498,1192.05964 1312.75977,1190.50275 1311.42631,1191.44442 C1308.67724,1176.42791 1309.20177,1177.03686 1294.74225,1173.36434 C1293.64894,1175.34185 1293.27608,1178.68792 1291.71511,1180.89771 C1290.527,1182.54877 1284.60543,1183.86711 1284.11881,1185.41772 C1282.37456,1191.06775 1287.39874,1194.03715 1285.64186,1200.48445 C1284.97829,1202.74446 1279.71396,1205.0547 1278.05188,1206.51115 C1278.05188,1206.51115 1279.42958,1209.33616 1279.58125,1209.52449 C1283.27196,1209.24199 1288.15711,1210.70472 1291.71511,1209.52449 C1294.74225,1208.53888 1296.97312,1201.47635 1300.80919,1200.48445 C1320.05273,1195.63799 1316.02075,1209.71283 1308.39285,1215.55118 C1303.2802,1219.5062 1298.82479,1221.10704 1293.22552,1224.59122 L1290.19206,1223.08455 L1290.19206,1223.08455 Z" id="path3856"></path>
                    <path d="M722.940372,822.315813 C722.99093,821.512254 722.940372,802.729064 722.940372,802.729064 C722.182005,801.599059 719.104302,800.895945 718.390174,799.715718 C717.726603,798.723825 717.676046,792.885467 716.873441,792.182353 C714.598342,790.342956 713.08161,791.385072 709.289778,790.67568 C711.185694,789.690065 705.687538,788.886506 704.73958,789.169007 C704.031772,789.407563 703.273405,791.711518 701.706115,792.182353 C702.748869,800.092386 704.73958,808.900145 697.155917,811.769102 C694.122452,812.949329 693.648473,809.647204 689.572254,810.262429 C688.295671,810.494707 684.737669,814.543891 683.505323,814.782448 C671.516816,817.368903 666.347285,809.414925 660.754334,805.74241 C659.237601,806.728025 657.815664,805.127185 656.204136,805.74241 C653.884799,806.633858 652.273271,812.290159 650.137205,813.275775 C644.784403,815.818285 631.367639,814.732225 625.869483,811.769102 C618.620765,807.908252 622.456835,791.76174 618.28582,784.648988 C617.62225,783.562928 607.814045,775.703117 606.158279,774.102277 C604.401397,775.747062 598.713649,782.67148 597.057883,783.142315 C581.220666,787.662334 571.507258,760.730554 563.683445,789.169007 C562.836603,789.263174 557.856664,791.479239 554.583049,790.67568 L553.072637,787.662334 C548.04846,784.460654 543.877445,777.919182 551.549584,774.102277 C552.832487,773.487052 549.419839,772.451214 550.039171,771.088931 C546.721319,770.241427 542.733576,767.46036 539.415723,768.075585 C535.535416,768.879144 536.003075,775.514783 527.288182,774.102277 C525.152117,773.769553 514.585546,763.794123 513.637588,763.555566 C510.269178,762.852452 503.203732,764.547459 498.463942,765.062239 L496.953529,760.54222 C484.958702,757.434707 497.945725,766.663079 499.986994,768.075585 C499.557253,770.379539 498.375466,775.087892 498.463942,775.60895 C492.352773,776.550621 490.551653,776.268119 484.819668,777.115623 C484.389927,775.138115 483.018548,775.087892 481.786203,774.102277 C483.347173,767.981418 483.302935,765.388685 484.819668,760.54222 C480.977279,758.803268 475.858306,759.600549 474.20254,756.022201 C472.730045,753.059078 472.919637,744.627987 472.685807,742.462144 C469.601784,743.403815 469.652342,740.064023 466.618876,740.955471 C464.628165,741.564418 463.490615,747.641333 460.551946,748.488836 C452.633338,750.843013 445.479415,748.959671 437.800956,749.995509 C436.568611,734.834612 429.503165,725.041238 422.63363,715.34203 C421.919502,715.863088 418.79756,715.34203 418.083432,715.34203 C414.904613,722.027892 415.334354,720.709553 413.533234,730.40876 C410.973748,731.111874 411.16334,729.278756 410.499769,731.915433 C408.932479,731.111874 406.044367,732.480436 404.432838,731.915433 C403.71871,731.727099 402.960344,729.46709 401.399373,728.902087 C401.399373,728.858143 401.544727,721.839558 402.916106,724.382068 C402.536923,722.925618 401.399373,718.355376 401.399373,718.355376 C397.891929,717.840596 394.055859,719.485381 390.782245,718.355376 C388.601942,717.645985 386.84506,711.763682 384.715314,710.822011 C373.624207,706.019491 363.955036,712.378907 355.897394,715.34203 C352.674337,711.010346 350.399238,710.162842 348.313731,703.288647 C348.364289,704.462596 348.882506,713.414745 348.313731,715.34203 C348.029344,716.239756 345.514095,716.472035 345.280266,718.355376 C343.099963,717.60204 339.826348,719.158935 337.696603,718.355376 C336.514815,717.978708 333.715179,715.009307 331.629672,713.835357 C330.163497,714.777028 328.596207,719.064768 327.079474,719.862049 C324.899171,720.992054 309.16307,723.911233 305.845217,722.875395 C305.56083,722.831451 304.612872,720.144551 304.328485,719.862049 C295.461918,712.14035 300.062674,713.973469 301.295019,704.79532 L302.811752,698.768628 C302.85599,698.812572 309.921436,698.956962 307.36195,700.275301 C309.118832,700.275301 311.62776,700.181134 313.42888,700.275301 C313.42888,699.804465 313.195051,694.342776 313.42888,694.248609 C309.82664,694.958 310.919952,692.089044 307.36195,692.741936 C306.129605,692.974214 302.527365,698.530071 301.295019,698.768628 C296.605788,699.754243 280.34515,694.675499 277.027297,692.741936 C275.510565,691.894432 276.603876,689.307977 275.510565,688.215639 C273.665207,686.482965 270.296796,686.715244 267.926901,685.208571 C266.934706,684.643568 265.841394,681.071498 264.893436,680.688552 C263.989716,680.355828 261.152162,681.159387 260.343238,680.688552 C259.249927,683.469619 258.068139,680.638329 257.309773,682.195225 C256.69676,683.425674 257.309773,686.903578 257.309773,688.215639 C254.655491,688.837141 256.456611,688.786919 255.79304,691.235263 C253.138758,691.235263 249.157335,690.488204 246.692645,691.235263 C243.330554,686.577132 239.58296,680.267939 234.558784,677.675206 C227.21527,673.958746 209.911878,673.104964 205.740864,667.128495 C204.129335,664.918708 205.791421,663.361812 204.224131,661.101803 C201.569849,662.043474 203.042343,659.413074 202.707398,658.088457 C198.820771,659.262406 202.707398,653.568438 202.707398,653.568438 C206.695141,652.388211 207.636779,655.175556 211.807794,655.075111 C211.807794,654.893055 211.763556,650.599037 211.807794,650.555092 C208.06652,649.47531 208.395146,650.084257 204.224131,649.048419 C206.49923,647.491524 199.95832,647.642191 199.673933,647.541746 L198.1572,655.075111 C197.114447,655.690336 191.003278,654.271552 190.573537,655.075111 C189.296954,657.573677 190.573537,664.259538 190.573537,667.128495 C174.319219,670.706843 179.532988,669.721228 172.372746,656.581784 C172.088358,656.110949 167.822548,652.199877 167.822548,652.068043 C166.590202,646.694242 170.053409,641.941945 169.33928,638.501708 C168.960097,636.900868 165.313619,635.488362 164.789082,633.987967 C162.943724,634.785248 159.246689,633.987967 157.205419,633.987967 C157.445569,638.225485 157.86899,639.964436 158.722152,644.5284 C157.395011,645.564238 156.023632,645.426126 155.688687,647.541746 C152.800575,647.397357 145.077878,646.035073 145.077878,646.035073 C144.976762,645.940906 140.76151,644.810901 140.52136,644.5284 C138.391615,642.500669 139.573402,636.103587 137.487895,633.987967 C134.45443,631.012288 128.488615,632.192515 125.354034,629.46167 C124.31128,628.614167 125.354034,625.600821 123.843621,624.941651 C121.707556,624.138092 118.345465,625.789155 116.253638,624.941651 C117.820929,625.694988 113.226493,627.954997 113.226493,627.954997 C113.50456,628.425832 116.253638,632.481294 116.253638,632.481294 C121.656998,634.119801 126.965562,633.272297 129.910552,636.995035 C130.194939,637.371703 132.944017,641.515054 132.944017,641.515054 C133.462234,643.775064 131.420964,650.555092 131.420964,650.555092 C117.062562,650.555092 108.764771,648.860085 101.092632,638.501708 C99.8097285,636.856923 99.8097285,633.272297 98.0591662,632.481294 C93.4141726,630.453563 88.0992886,633.134186 84.4022528,630.968343 C82.462099,629.882283 76.7301136,611.946597 78.3353223,606.861575 C78.6702674,605.825738 82.1334736,603.942396 82.8918399,602.341556 C85.6409178,602.341556 89.2431578,603.000726 91.9922357,602.341556 C91.7963244,602.059055 90.140558,599.422377 90.4691834,599.32821 C78.859859,597.306757 78.4806758,594.764247 73.7914441,585.768154 C58.6683558,585.768154 56.2984611,584.55026 52.5571872,573.71477 L52.5571872,570.701424 C49.4731642,568.25308 43.646383,569.954365 40.4170065,567.688078 C32.9786968,562.559112 38.9065935,541.46569 38.9065935,528.520858 C45.4917411,526.725406 54.8765242,523.668115 57.1073851,517.967869 C57.7203979,516.367029 56.1088695,514.954523 57.1073851,513.454128 C53.5493832,510.999507 33.5032335,493.302377 32.839663,490.854033 C31.4177262,486.045235 33.9266547,482.8875 34.3563956,478.800649 C36.3407875,478.894816 39.3742528,476.54064 43.4504717,477.287698 C46.6798483,477.946868 47.4382146,481.952107 49.5174023,483.320668 C49.56796,483.320668 56.254223,480.966492 54.0739199,480.301044 C55.0218778,479.59793 58.0995811,478.329814 58.6241178,477.287698 C60.330442,473.903962 58.9527432,471.355174 60.1408504,466.740988 C58.055343,466.370597 57.9099895,463.872031 57.1073851,462.220969 C55.445299,463.024527 53.644179,466.408264 52.5571872,466.740988 C49.3341304,467.827048 45.2579114,466.270152 41.9400588,466.740988 C40.3285304,461.850578 35.114762,452.854485 35.8731283,447.154239 C35.9679241,446.218846 40.1389388,443.299667 40.4170065,442.63422 C42.6984251,437.555476 39.9935853,437.461309 40.4170065,432.093787 C38.4768526,433.079402 39.1909809,429.777277 35.8731283,430.580836 C35.4939451,430.675003 34.1668041,433.267736 32.839663,433.60046 C38.8560358,435.854191 24.35228,435.854191 28.2894651,435.107133 L26.7727325,429.074163 C32.839663,425.407925 43.8802126,422.771248 48.0069893,417.020779 C50.2820883,413.819099 49.56796,408.928689 52.5571872,406.480346 C57.2969767,402.569274 63.1743157,404.879506 64.6910483,397.440308 C66.3910528,388.820883 60.37468,386.328595 61.657583,379.353954 C62.3211536,375.549605 69.2412462,373.377485 70.7579788,370.320194 C71.8892086,367.915795 73.6460906,359.490982 73.7914441,358.26681 C74.4044569,351.486782 72.0345621,334.6246 75.3081767,326.626677 L76.8249094,326.626677 C81.3687876,324.36039 84.6866402,316.029744 88.9587704,314.573294 L91.9922357,314.573294 C92.750602,313.907846 92.4598949,310.611999 93.5026486,310.053275 C96.871059,308.358268 100.612333,310.480165 104.126097,308.546602 C106.919413,306.995984 119.192308,289.807356 113.226493,284.439834 C120.759598,278.557531 136.02172,274.690404 134.45443,260.333066 C134.410192,260.333066 130.473007,254.11804 129.910552,252.799701 C131.800148,253.785316 131.092339,250.495747 134.45443,251.293028 C136.116516,251.713641 136.539937,255.668658 137.487895,257.31972 C138.676002,257.31972 142.512072,256.704495 143.554826,257.31972 C146.733644,254.256152 159.057097,245.08428 148.111343,242.25299 C147.018032,243.565051 145.077878,247.758624 143.554826,248.273404 C141.848501,248.894907 139.055185,247.57029 137.487895,248.273404 C136.729529,246.816954 134.125804,244.795501 132.944017,243.759663 C132.944017,243.759663 132.944017,238.254029 134.45443,240.740039 C135.497183,237.306081 135.118,238.254029 135.977482,234.719625 C139.010947,236.132131 137.487895,224.172914 137.487895,224.172914 C146.638849,227.136038 149.912463,227.939597 160.238885,227.18626 C160.479034,227.707318 161.47123,230.155662 161.755617,230.199606 C163.133316,230.576275 169.200246,229.069602 167.822548,228.686655 C170.103966,224.832084 172.751929,221.542514 175.406211,218.146222 C168.44188,216.074547 160.34,215.83599 158.722152,209.106184 C158.488322,208.352848 159.101335,205.295557 158.722152,204.586166 C157.774194,203.079493 153.230316,201.811376 152.655221,200.066147 C151.852617,197.950527 153.413588,194.698624 152.655221,192.532782 C155.404299,193.844843 157.729956,192.670893 160.238885,194.039455 C163.03852,195.646572 165.218823,201.05804 167.822548,203.079493 C172.94152,207.222843 177.965697,209.482853 182.996194,213.626203 C186.497318,208.541182 190.668333,201.42843 195.123735,197.052801 C196.975413,195.213404 203.231935,193.374007 204.224131,191.019831 C205.981013,186.650479 202.378773,185.426307 202.707398,181.986071 L205.740864,177.466052 C207.971724,166.448506 206.360196,169.17935 210.291061,160.886371 C211.953148,161.551818 214.60743,160.465758 216.357992,160.886371 C220.529007,162.022654 225.129762,168.75246 228.491853,171.43936 C239.917906,161.168872 249.536518,152.932393 267.926901,162.399322 C266.934706,153.453451 265.93619,144.608025 273.993832,141.3059 C276.414285,140.320285 278.638826,141.732791 280.060763,139.799227 C281.103516,138.386721 283.903152,127.927899 284.61096,126.23917 C301.819556,128.781681 306.369754,126.710005 317.979078,120.212478 C320.304735,121.668929 326.510699,128.405013 330.112939,127.745843 C330.112939,127.745843 328.924832,120.444757 328.596207,118.712083 C329.683199,117.996413 337.07727,113.765173 337.696603,112.679113 C338.928948,110.324937 337.07727,106.275753 337.696603,103.639075 C338.265377,101.05262 344.945321,96.2940445 345.280266,94.5990374 C345.893279,91.1148561 343.055725,88.9992361 342.246801,85.5527217 C346.417815,86.5006701 352.769133,89.325682 357.414127,88.5723455 C361.679937,87.9068982 364.902994,81.4658712 368.031255,79.5323075 C370.451708,78.0256346 372.910079,79.58253 375.614918,78.0256346 C379.735375,75.671458 387.369596,59.8576694 389.265512,53.9188668 C394.997498,55.802208 405.51983,58.4388857 412.016502,58.4388857 C413.912417,58.4891082 417.179712,55.4255397 421.116897,56.9322127 L421.116897,58.4388857 C423.581588,59.7070021 423.815418,63.2414059 425.667095,64.4655777 C428.131786,66.1668626 430.356327,64.4655777 433.250759,65.9722507 C437.800956,51.0436325 431.828822,56.4613774 446.901352,52.4121938 C447.229978,52.9269737 449.315485,56.7501564 449.934818,56.9322127 C451.641142,57.6353268 452.822929,56.0847092 454.485015,56.9322127 C455.761599,55.8963751 457.562719,51.7090797 459.035213,50.9117986 C463.250466,48.6455113 475.479123,48.4571772 480.26947,47.8921748 C480.787687,44.5021606 479.081363,40.5910886 480.26947,37.3454639 C482.588807,30.9421037 510.743157,25.7629153 519.704519,23.7916848 C520.368089,21.1487293 518.99039,18.9326644 519.704519,16.2520421 C519.748757,16.0197633 532.925371,2.88031931 533.355112,2.69198518 C546.670761,-3.28448433 547.094182,6.92950296 553.072637,8.71867713 C565.206498,12.441415 569.6619,5.27844048 574.300574,2.69198518 C576.771584,1.32342389 579.090921,2.50365106 581.890557,1.18531219 C582.737399,3.39509924 584.399485,3.20676512 586.434435,4.19865817 C585.252647,12.6234713 585.676068,17.2439351 584.924022,22.278734 C587.338155,21.669787 588.5705,23.0822929 590.990952,23.7916848 C592.318093,21.4814529 596.059367,12.6736937 598.568296,11.7320231 C607.150475,8.53662081 618.431174,14.557035 624.352751,14.7453691 C634.546458,15.165982 635.823041,11.4055773 641.043129,7.21200414 C655.262498,13.4270302 656.444285,7.54472776 672.888195,10.2253501 C674.404928,10.5078513 681.091191,14.651202 681.988591,14.7453691 C687.252917,15.5991504 692.37189,12.6736937 695.639184,13.2449739 C697.061121,13.5211973 700.094587,17.0493232 701.706115,17.7587151 C700.998306,20.4393374 702.369685,22.6616801 701.706115,25.29208 C701.567081,25.8570824 686.538789,47.2330054 706.256313,41.8654829 C706.919883,41.7273712 709.624723,37.5840205 710.806511,37.3454639 C713.890534,36.7867393 715.451504,39.1409159 716.873441,38.8521369 C715.261913,40.0763087 718.105787,45.3496641 718.390174,46.3855018 C716.68385,47.2832278 717.726603,49.0221795 716.873441,49.3988478 C714.174921,50.7171867 711.849264,50.290296 709.289778,50.9117986 C709.47937,53.9690892 707.634012,55.4255397 707.773045,56.9322127 C708.152229,62.3436799 717.34742,65.1247471 719.906907,68.9918744 C721.802822,71.9989426 720.94966,76.3369052 722.940372,79.5323075 C725.215471,83.3994349 743.087637,91.1148561 750.241559,90.0790185 C750.955687,89.9848514 754.463132,85.703389 754.791757,85.5527217 C756.359048,85.0379418 759.386193,86.406503 760.865007,85.5527217 C762.899957,84.3787723 764.701077,78.9233605 766.919298,78.0256346 C768.063168,77.6050217 770.294029,78.778971 771.475816,78.0256346 C772.802957,95.0698727 772.088829,91.1148561 785.12009,91.5856914 C784.936818,87.5867302 786.074368,81.9367065 785.12009,78.0256346 C785.037934,77.8875229 780.816361,75.2508451 780.582532,75.0122886 C783.32529,64.8422459 779.956879,67.8116473 786.643142,61.4585095 C785.037934,60.9813964 784.273248,58.6774423 783.609677,58.4388857 C781.239782,57.6855492 778.446466,59.1419998 776.026014,58.4388857 C778.446466,57.5411597 770.199233,56.9824352 769.959083,56.9322127 C769.573581,58.0182728 769.289193,60.1778375 768.448671,61.4585095 C760.902926,72.563945 762.805161,71.9989426 744.174629,71.9989426 C743.131875,69.0734859 743.131875,64.1328541 741.141163,61.4585095 C739.434839,59.2863893 734.126275,58.815554 732.040768,56.9322127 C729.765669,54.9547044 730.618831,55.4694844 729.007302,52.4121938 C729.05786,52.4121938 729.007302,48.1244536 729.007302,47.8921748 C730.050056,47.8921748 734.176833,48.557622 735.074233,47.8921748 C734.979437,47.3773949 736.167544,42.6690418 736.590966,40.3588099 C729.102098,40.3588099 737.15974,28.5439825 738.107698,26.798753 C733.134079,22.9379035 729.007302,18.9326644 724.457104,14.7453691 C725.266029,12.1086914 726.35302,11.4997444 725.973837,8.71867713 C741.760496,-0.459472483 744.888757,1.18531219 753.275024,16.2520421 C754.27354,15.0278703 758.299201,14.651202 759.341955,13.2449739 C760.669096,11.4495219 759.626342,9.14556781 760.865007,7.21200414 C766.969856,-2.6253149 774.370248,2.12698281 782.092945,5.71160896 C780.816361,17.0995456 781.859115,19.1272764 783.609677,26.798753 C785.082172,25.9512494 788.065079,27.501867 789.676608,26.798753 C791.951707,25.8570824 793.992976,18.6062186 797.260271,17.7587151 C808.680004,14.9337032 810.291532,23.5029058 815.461062,26.798753 C818.115345,28.5439825 820.295648,26.9870871 823.038406,28.305426 C825.692688,29.6739873 828.264814,34.0935614 830.634709,35.8387909 C831.860734,35.2737885 833.902003,36.1652367 835.172267,35.8387909 C837.592719,35.2737885 839.444397,30.6596025 841.245517,29.812099 C846.36449,27.4579224 849.258921,29.5295978 854.889791,29.812099 C855.13626,30.8542144 857.83478,34.0496167 857.929576,34.3321179 C860.015084,42.4744299 853.240344,46.4796689 859.446309,50.9117986 C861.007279,50.2024067 863.813235,51.5207456 865.513239,50.9117986 C867.883134,50.1082397 868.306555,44.6465501 870.063437,43.3784336 C878.171637,37.4898534 884.807342,43.3784336 891.291374,46.3855018 C891.108103,50.8113537 891.291374,55.5699292 891.291374,59.9455587 C887.834488,61.3580646 878.835208,64.0449648 877.6471,67.4789236 C877.027768,69.1739308 878.354909,71.9487202 877.6471,73.5056156 C881.584286,72.4258333 881.009191,76.0041816 885.230764,73.5056156 C890.25494,70.5864367 887.265713,63.7122412 897.364625,64.4655777 C903.292521,64.936413 908.929711,71.5281073 911.008899,76.5189616 C911.008899,76.5189616 914.756492,78.5404145 912.531951,79.5323075 C910.016703,80.7125347 907.078033,85.4711102 907.981753,90.0790185 C908.076549,90.7821325 912.10221,92.5775845 912.531951,93.0923644 C916.083633,97.8007175 915.274709,101.479511 917.082149,108.159094 C915.748688,109.194932 914.383629,109.05682 914.048684,111.17244 C913.530467,111.17244 909.877669,110.896217 909.492166,111.17244 L909.492166,115.692459 C930.258764,106.137641 932.533863,114.562455 951.966999,120.212478 C952.390421,122.899378 952.106033,128.781681 953.483732,132.265862 C954.096745,134.011092 958.93133,136.126712 959.544343,138.292554 C960.353267,141.3059 958.93133,144.275301 959.544343,147.332592 C958.172964,148.412374 956.991176,148.318207 956.510878,150.345938 C954.475928,150.345938 950.690416,149.592601 948.927214,150.345938 C947.890781,150.816773 946.506762,156.046184 945.900069,156.378908 C947.315686,156.416575 949.451751,158.682862 950.450267,159.385976 C958.836534,153.786175 955.56292,154.489289 967.128006,154.865957 C966.755143,158.494528 968.979684,157.314301 968.644739,160.886371 C968.461467,162.443266 964.195656,166.310394 964.100861,166.919341 C963.058107,172.236641 966.521313,173.605202 967.128006,175.959379 C967.797896,178.878558 966.325402,182.174405 967.128006,184.999417 C967.987488,188.245041 972.777835,191.258387 974.711669,194.039455 C974.054418,195.125515 974.945499,197.479691 974.711669,198.553196 C973.864827,201.993432 966.944734,204.397831 964.100861,206.092838 C967.797896,218.66728 972.44289,222.716464 974.711669,237.732971 C973.435086,238.02175 970.686008,240.65215 970.167791,240.740039 C961.067395,242.76777 956.611993,233.633565 951.966999,230.199606 C951.113837,229.634604 949.451751,226.483146 948.927214,225.679587 C948.269964,228.736878 947.22721,235.899852 945.900069,240.740039 C945.520886,241.970489 941.533143,245.548837 941.343551,246.773009 C939.877376,255.71888 948.743943,256.936774 950.450267,263.346412 L950.450267,264.853085 C950.165879,263.72308 948.554351,269.278937 948.927214,270.879777 C949.451751,273.328121 961.351783,294.044874 955.000465,297.999891 C945.994865,303.649914 940.496709,294.754266 935.282941,293.479872 C934.379221,293.291538 931.491109,293.85654 930.726423,293.479872 C930.353559,295.124656 927.888869,295.877993 927.699277,296.493218 C926.037191,301.245515 927.699277,309.532217 927.699277,314.573294 C928.501882,311.836171 929.20969,316.073689 929.20969,316.073689 C924.002242,327.430236 925.095553,324.555002 912.531951,323.607054 C911.160572,318.383921 907.981753,299.079673 903.425235,296.493218 C899.785077,294.515709 894.805138,296.537162 891.291374,294.986545 C890.583566,294.704044 887.025564,290.560693 886.747496,290.466526 C883.429644,289.763412 882.285774,292.349867 880.674246,291.973199 C882.437448,291.973199 879.163833,296.493218 879.163833,296.493218 C878.734092,301.94863 884.756785,311.321391 885.230764,314.573294 C885.98913,320.599986 882.955665,325.641062 882.197298,329.640023 L883.714031,334.153765 C886.551585,333.544818 889.970553,335.095435 892.808107,334.153765 C899.917791,331.799588 897.45942,318.333698 909.492166,323.607054 C921.442755,328.930632 914.282513,341.787574 911.008899,349.220494 C903.052372,348.617825 899.633404,348.749659 892.808107,347.720099 C895.803654,357.934087 894.805138,356.854304 892.808107,365.800175 C891.39249,365.982231 887.78393,367.733739 885.230764,368.813521 C885.230764,368.813521 875.138172,359.070369 877.6471,358.26681 C884.18169,356.283024 880.630008,339.05673 877.6471,334.153765 C875.41624,330.625639 868.066406,328.315407 863.996507,326.626677 C865.140376,345.880703 863.427732,341.787574 876.130368,353.740513 C874.27869,359.302648 874.752669,360.708876 873.090583,365.800175 C873.848949,366.409122 877.223679,367.966018 877.6471,368.813521 C878.974241,371.726422 876.364197,373.239373 879.163833,374.833935 C879.163833,374.833935 876.364197,382.693746 876.130368,383.873973 C877.6471,382.93858 880.630008,383.359193 882.197298,382.373578 C883.145256,381.808576 884.282806,378.180005 885.230764,377.853559 C886.88653,377.332501 892.52372,378.983564 891.291374,379.353954 C891.582081,380.257958 895.512947,381.519797 895.847892,382.373578 C897.415182,386.937542 894.236364,394.426962 895.847892,398.940703 C896.991761,402.29305 905.232675,400.874267 903.425235,411.000365 C902.812223,414.390379 896.656816,417.87456 894.331159,420.040403 C898.875038,429.833777 898.875038,425.922705 895.847892,435.107133 C893.617031,441.887161 891.62632,449.181969 885.230764,451.680535 C868.6415,458.171785 866.454878,448.855524 868.553024,435.107133 C867.459713,434.303574 861.291667,431.666896 860.956722,430.580836 L860.956722,427.56749 L857.929576,427.56749 C856.792027,431.616673 857.645189,434.48563 854.889791,436.607528 L853.379378,438.120479 C854.087187,438.823593 852.949637,441.648604 853.379378,442.63422 L854.889791,442.63422 C860.722892,445.553399 863.092787,451.253645 867.029972,456.194277 C852.102795,458.881177 852.102795,465.516816 847.312448,481.813995 C850.921007,483.509002 858.637385,489.202971 862.479774,489.34736 C870.537416,489.717751 868.6415,485.153787 871.58017,483.320668 C874.329248,481.619383 876.180926,483.603169 879.163833,481.813995 C881.059749,483.088389 883.094698,485.342121 885.230764,486.327736 C884.099534,490.753588 885.660505,493.766934 883.714031,496.874447 C883.473882,497.207171 877.6471,499.887793 877.6471,499.887793 C876.218844,505.537817 881.862353,505.399705 880.674246,511.941177 C880.067553,515.331191 874.752669,517.126643 873.090583,519.48082 C871.725523,521.408106 872.717719,523.668115 871.58017,525.501234 C868.925888,529.738752 862.334421,532.092928 857.929576,534.541272 C858.586827,537.466729 857.076414,540.756298 857.929576,543.58131 C858.403555,545.232372 863.712119,548.904888 863.996507,551.120953 C864.849669,559.501821 855.983103,563.96534 850.345913,566.187682 C847.26189,567.405576 854.516928,569.521196 856.412844,569.194751 L859.446309,566.187682 C872.907311,562.609334 870.436301,575.554166 870.063437,582.754808 C868.116964,583.087531 867.883134,585.485652 867.029972,585.768154 C859.629581,588.310664 850.017288,579.97374 845.795715,578.234789 L842.75593,582.754808 C843.040318,583.646256 846.977503,584.92065 847.312448,585.768154 C848.16561,588.310664 847.312448,592.127569 847.312448,594.814469 C849.631785,593.816298 848.16561,597.256535 851.862646,596.321142 C852.481978,596.170475 854.087187,592.315903 854.889791,591.794845 C862.625128,587.03627 865.797627,590.80923 871.58017,594.814469 C865.374206,610.113478 865.222532,616.14017 847.312448,606.861575 C847.546277,607.049909 847.312448,611.099093 847.312448,611.381594 C853.328821,614.018272 856.318048,613.547437 859.446309,618.914959 C859.825492,619.624351 861.626612,620.044964 862.479774,620.421632 C861.765646,622.066417 863.048549,624.80354 862.479774,626.454602 C861.44334,629.411448 855.610239,632.23646 854.889791,635.488362 C852.949637,644.201954 856.216932,650.699481 854.889791,659.601408 C856.368606,658.747626 857.885338,662.137641 860.956722,659.601408 C864.186098,656.90823 861.392782,644.434233 860.956722,638.501708 C863.851153,638.928599 866.454878,636.574422 871.58017,638.501708 C872.054149,638.740265 872.667162,641.420887 873.090583,641.515054 C873.191698,642.883615 877.406951,645.426126 876.130368,650.555092 C876.035572,650.93176 872.907311,653.995329 873.090583,655.075111 C873.38129,657.291176 879.827404,658.797849 879.163833,667.128495 C878.734092,672.075404 873.61512,670.612676 876.130368,677.675206 C876.218844,678.095819 880.156029,681.441888 880.674246,682.195225 C880.674246,682.195225 880.35194,686.106297 879.163833,683.701898 C878.215875,684.222955 877.508067,689.21381 876.130368,689.734867 C873.046345,690.858594 867.314359,689.734867 863.996507,689.734867 L863.996507,692.741936 L865.513239,692.741936 C865.747069,693.821718 866.221048,699.616131 867.029972,700.275301 C873.520324,706.019491 880.541532,699.616131 888.264229,701.788251 C889.117391,702.064475 891.341932,705.642823 892.808107,706.301993 C892.808107,707.670554 892.201414,711.104513 892.808107,712.328684 C887.78393,718.499766 883.429644,721.839558 876.130368,725.888741 C876.130368,727.772083 877.027768,733.422106 876.130368,734.928779 C874.329248,737.898181 871.34634,735.87045 868.553024,737.942125 C865.089818,740.484636 863.566766,748.626948 862.479774,753.008855 C860.817688,753.385523 860.059322,755.833867 859.446309,756.022201 C840.537709,762.519728 847.596835,740.723192 850.345913,733.422106 C847.691631,732.530658 847.546277,733.327939 845.795715,731.915433 C839.912056,727.301247 840.670423,727.916472 832.145121,730.40876 C833.276351,732.248157 828.966303,732.480436 830.634709,733.422106 C839.16001,738.551072 835.646246,748.206335 835.172267,760.54222 L839.728785,762.048893 C847.363006,775.420616 841.150721,774.573112 827.594924,774.102277 C828.637677,758.985325 830.81798,763.273065 818.500847,760.54222 C810.582239,771.986657 807.542454,774.102277 792.716393,774.102277 C792.147618,772.827883 790.902633,768.307864 789.676608,766.568912 C790.245382,765.671186 793.992976,762.65784 794.226806,762.048893 C793.417882,761.483891 794.226806,755.645533 794.226806,754.515528 C790.011553,753.718247 788.248351,754.421361 785.12009,753.008855 C782.901869,761.534113 781.239782,774.52289 777.542747,781.635642 C781.998149,785.163768 784.88626,787.430055 788.159875,792.182353 C786.883292,794.254028 787.117121,797.644042 786.643142,799.715718 C785.606708,799.904052 778.869888,800.751555 780.582532,799.715718 C775.975456,797.267374 775.691069,799.33905 772.992549,795.195699 C772.328978,794.254028 770.053879,787.141276 769.959083,786.155661 C768.208521,786.576274 763.993268,787.712556 763.892153,787.662334 C762.988433,788.886506 762.091033,791.385072 760.865007,792.182353 C759.202921,791.102571 758.400317,794.775086 757.825222,795.195699 C769.105921,801.504892 769.440866,799.527384 766.919298,811.769102 C764.985464,812.095547 764.745315,814.499946 763.892153,814.782448 C761.996237,815.441617 756.782469,813.558276 757.825222,813.275775 L754.791757,813.275775 C752.567216,812.522438 752.756807,806.633858 750.241559,805.74241 C748.585793,805.22763 745.691361,806.589913 744.174629,805.74241 C742.278713,812.754717 739.580193,823.025204 733.5575,825.329159 C731.895414,825.988328 730.479797,824.387488 729.007302,825.329159 C728.248936,824.104987 724.318071,823.025204 722.940372,822.315813" id="path3852"></path>
                    <path d="M1359.95544,746.982163 C1359.91752,746.887996 1361.04875,742.650478 1361.47849,740.955471 C1359.8164,740.629025 1359.05804,738.174404 1358.44503,737.942125 C1354.51416,736.623786 1349.24983,736.95651 1346.30484,736.435452 C1345.17361,722.40456 1341.0974,716.0012 1341.75465,704.79532 C1335.69404,716.051422 1331.42823,715.153696 1322.03712,707.808666 C1320.57727,709.59784 1319.48396,714.25597 1317.49324,715.34203 C1312.6081,718.072875 1290.95042,716.660369 1282.60839,718.355376 C1282.23553,716.754536 1279.76452,716.0012 1279.58125,715.34203 C1277.63477,709.836396 1279.58125,700.181134 1279.58125,694.248609 C1279.3411,694.154442 1276.54146,692.741936 1276.54146,692.741936 C1275.44815,695.001945 1273.69759,695.755282 1271.99127,697.261955 C1275.92213,710.206787 1272.42101,727.395414 1256.82394,716.848703 C1254.87747,715.580587 1255.45256,710.872234 1253.79679,709.315338 C1252.27374,707.946777 1247.81834,707.011384 1246.20049,706.301993 C1247.2938,702.108419 1245.77707,699.283408 1247.72354,695.755282 C1250.66221,690.437982 1263.79459,691.235263 1265.91802,685.208571 C1266.82805,682.672338 1264.97638,680.267939 1265.91802,677.675206 C1265.3998,677.675206 1261.75332,678.001652 1261.38046,677.675206 C1256.64067,681.956668 1254.92802,684.687513 1252.27374,691.235263 C1247.16109,691.938377 1238.71794,690.952761 1232.55622,692.741936 C1232.03168,692.923992 1228.90974,697.117565 1227.9997,697.261955 C1222.27403,698.203625 1220.28332,693.727551 1214.35543,695.755282 C1213.69817,695.993838 1212.88925,698.486126 1211.32828,698.768628 C1219.28481,703.288647 1218.62124,702.53531 1217.38889,713.835357 L1212.83869,715.34203 C1211.56211,713.552856 1209.33125,713.88558 1208.28849,712.328684 C1207.39109,711.060568 1207.85875,705.693046 1206.77176,704.79532 C1203.16952,701.970308 1197.81672,705.410544 1194.6379,700.275301 C1193.31076,698.203625 1190.65648,686.01213 1190.08138,683.701898 C1160.75157,692.2711 1171.64676,670.236008 1153.68612,670.148119 C1153.68612,670.148119 1149.89429,671.554347 1149.13592,671.654792 L1149.13592,674.66186 C1151.22143,675.371252 1154.53928,674.66186 1156.71959,674.66186 C1156.01178,675.132695 1158.00249,677.298538 1158.23632,677.675206 C1156.71959,678.899378 1155.91698,678.478765 1155.20917,680.688552 C1149.08536,681.818556 1139.89017,684.505457 1135.49165,683.701898 C1132.64777,683.231062 1128.75483,677.581039 1126.38493,676.168533 C1120.69719,672.922908 1114.5797,673.155187 1108.18414,670.148119 C1107.05291,669.671006 1105.10012,665.954545 1103.63394,665.621822 C1098.51497,664.680151 1097.28263,668.584945 1093.01681,667.128495 C1092.4986,666.990383 1090.36253,663.173478 1089.98967,662.608476 C1084.53575,655.73428 1085.81233,652.438433 1089.98967,644.5284 C1086.48222,643.680896 1083.11381,642.883615 1077.85581,641.515054 C1078.56362,643.122172 1077.23648,645.890684 1077.85581,647.541746 C1077.99484,648.062804 1081.83723,650.184702 1082.39969,650.555092 C1081.45805,653.147825 1083.30341,655.545946 1082.39969,658.088457 C1082.07106,658.979905 1078.51306,661.152025 1077.85581,662.608476 C1074.76547,661.334082 1071.35914,661.616583 1068.74909,661.101803 C1068.04128,655.075111 1066.3792,644.578622 1065.71563,638.501708 C1061.0264,638.501708 1061.40558,639.116933 1056.61523,638.501708 C1057.3736,636.386088 1055.80631,633.134186 1056.61523,630.968343 C1057.41784,628.614167 1064.81823,626.303935 1067.23868,624.941651 C1067.18812,624.703095 1066.61935,616.516838 1065.71563,618.914959 C1064.76767,617.358064 1066.33496,616.14017 1065.71563,614.401218 C1065.387,613.597659 1061.97435,611.293705 1061.16543,609.874921 L1058.13828,609.874921 C1055.85687,614.683719 1054.86467,618.211845 1052.07135,621.934583 C1045.24606,630.918121 1046.42784,625.600821 1035.38097,629.46167 C1034.907,629.650004 1032.77725,633.8373 1032.34751,633.987967 C1029.73747,634.92336 1027.32965,633.083963 1024.76385,633.987967 C1023.96124,632.380849 1020.54859,630.591675 1020.21997,629.46167 C1018.74747,625.129985 1020.54859,620.710411 1018.69692,617.408286 C1015.66977,612.178875 1008.40841,614.250551 1003.53591,611.381594 C997.608012,607.99158 994.530309,594.764247 992.918781,587.274827 C980.829158,592.92485 988.223229,592.92485 976.234722,587.274827 C976.759258,584.682093 975.470036,583.840868 974.711669,581.248135 C981.018749,576.778338 981.164103,576.351447 988.368583,575.221443 C987.850366,575.033108 988.033638,569.715808 986.84553,569.194751 C985.05073,568.441414 981.258898,569.194751 979.261867,569.194751 C978.415025,567.499744 975.046614,564.768899 974.711669,563.168059 C973.296052,557.097422 977.416509,550.838451 977.751454,546.600934 C977.941046,543.58131 976.089368,542.124859 976.234722,540.567964 L973.201256,540.567964 C970.022438,541.654024 967.229122,550.223227 964.100861,551.120953 C959.215718,552.527181 958.741739,549.46989 955.000465,549.608002 C951.113837,536.612947 950.064764,537.655063 959.544343,530.021253 C956.46664,527.296686 960.207913,510.340337 961.067395,504.407812 C958.792296,506.623877 955.803069,508.230995 953.483732,510.440782 C956.611993,510.440782 945.19226,511.702621 948.927214,510.440782 C947.182972,508.978054 944.572928,510.440782 942.866604,508.934109 L942.866604,505.914485 C938.126814,492.354428 947.132414,490.709644 951.966999,478.800649 C951.448782,478.329814 952.200829,474.933522 951.966999,474.274352 C951.208633,472.441234 943.903038,470.319336 942.866604,468.247661 C942.108237,466.891655 943.100433,463.777864 942.866604,462.220969 C942.575897,460.808463 938.411202,455.158439 938.316406,454.687604 C937.55172,451.818647 938.973657,448.573022 938.316406,445.653843 C941.059164,443.299667 946.892265,439.576929 948.927214,436.607528 C950.589301,434.165462 949.976288,431.057949 951.966999,429.074163 C954.096745,426.958543 957.698985,427.05271 959.544343,424.554144 C964.050303,418.439563 967.93693,402.80783 970.167791,394.426962 C972.392332,393.912182 975.520593,394.282572 977.751454,392.914011 C977.081564,392.355287 976.658143,389.053162 976.234722,388.40027 C974.812785,386.416484 969.73805,385.813815 968.644739,383.873973 C965.901981,379.22212 969.169275,367.451238 968.644739,359.773483 C971.444374,358.637201 969.365187,359.673038 970.167791,356.760137 C976.27896,356.565525 979.603132,355.7243 986.84553,356.760137 C986.18828,355.109075 987.275271,352.472397 986.84553,350.733445 C985.524709,345.97487 976.658143,342.490688 982.301652,334.153765 C983.110576,332.935871 987.938842,332.552925 988.368583,331.146696 C990.498328,323.939777 983.24329,319.984761 989.885315,316.073689 C991.686435,315.044129 998.271583,313.487233 1000.49612,313.066621 C999.883111,307.699098 997.367863,300.586346 1000.49612,294.986545 C1001.01434,294.044874 1004.76825,292.958814 1005.04632,291.973199 C1006.0006,288.445073 1003.6307,283.303551 1005.04632,279.919815 C1005.38127,279.072311 1007.2835,279.166478 1008.08611,278.406864 C1012.15601,274.834794 1016.09319,275.399796 1020.21997,272.38645 C1021.68614,271.30039 1020.64339,269.611661 1021.7367,267.866431 C1027.65828,258.311613 1035.72224,263.672858 1042.96464,267.866431 C1042.11148,257.369942 1041.73861,253.458871 1039.93749,243.759663 C1041.02448,243.477162 1049.03789,241.549876 1047.51484,242.25299 C1051.68585,244.983835 1056.52676,244.042164 1058.13828,249.792633 C1058.51747,251.387195 1057.33568,254.450764 1058.13828,255.813047 C1058.89665,257.219275 1063.63644,256.378049 1064.20521,257.31972 C1064.76767,256.095548 1063.87027,254.067818 1064.20521,252.799701 C1064.44536,251.85803 1068.61006,248.750517 1068.74909,248.273404 C1069.26731,245.875283 1066.71414,239.572368 1067.23868,239.239644 C1066.29072,238.957143 1064.39481,236.697134 1064.20521,236.22002 C1064.48328,235.987742 1064.20521,232.13317 1064.20521,231.706279 C1071.68776,228.454377 1073.72903,227.424817 1085.43315,228.686655 C1085.43315,227.801485 1084.82014,221.542514 1085.43315,221.159568 C1084.20713,219.370394 1081.11678,218.146222 1079.37254,216.639549 C1079.84652,215.270988 1079.37254,212.125808 1079.37254,210.60658 C1081.55284,209.771632 1081.35693,208.120569 1082.39969,206.092838 C1090.69748,207.649734 1091.22201,207.499067 1096.0566,210.60658 C1097.47222,211.554528 1102.64175,213.764315 1103.63394,215.132876 C1106.28823,218.993726 1104.25328,223.419578 1108.18414,225.679587 C1110.08006,226.803314 1113.53694,225.114585 1115.7678,225.679587 L1118.80127,228.686655 C1126.71988,230.526052 1123.82545,228.083986 1129.42472,227.18626 C1128.61579,224.731639 1129.42472,220.7829 1129.42472,218.146222 C1125.24738,216.639549 1120.7983,215.082654 1117.29086,213.626203 C1117.57524,211.127637 1118.80127,203.079493 1118.80127,203.079493 C1121.17116,202.746769 1123.59162,200.725316 1127.90798,201.57282 C1129.98717,201.993432 1133.45038,206.37534 1135.49165,207.599511 C1144.92067,213.532036 1150.36827,209.953688 1161.26978,213.626203 C1161.88912,213.858482 1162.64748,216.313104 1164.30325,216.639549 C1163.63968,219.979341 1165.67463,224.216859 1164.30325,227.18626 L1162.78652,227.18626 C1160.03744,227.18626 1157.2378,230.620219 1155.20917,231.706279 C1155.20917,234.487346 1155.82219,238.059417 1155.20917,240.740039 C1156.58055,241.920267 1157.38316,245.266336 1159.75305,245.266336 L1161.26978,245.266336 C1164.11366,242.579436 1167.7159,235.84963 1171.88691,234.719625 C1173.59324,234.299012 1176.24752,235.378795 1177.96016,234.719625 C1176.15272,229.207713 1176.7215,227.085815 1174.92038,221.159568 C1180.37429,218.805392 1189.47469,213.764315 1197.67137,218.146222 C1205.0212,222.145184 1199.85167,227.983541 1199.1881,231.706279 C1198.48029,235.617351 1200.89442,237.306081 1200.70483,239.239644 C1210.80374,239.854869 1219.3796,241.405487 1229.52275,245.266336 C1229.99673,245.504893 1230.61606,248.185515 1231.03948,248.273404 L1234.07295,248.273404 C1236.29749,251.952198 1233.88336,256.936774 1235.58968,261.839739 C1236.68299,265.135586 1241.75141,266.786649 1243.17335,269.373104 C1244.74064,272.436672 1243.36294,273.98729 1244.69008,276.906469 C1251.23099,276.67419 1265.12173,276.008743 1271.99127,279.919815 C1275.07529,281.708989 1276.68682,286.888177 1279.58125,288.959853 C1280.90207,289.99569 1282.50728,288.39485 1284.11881,288.959853 C1293.98389,292.77048 1287.29763,302.570132 1284.11881,307.039929 C1289.38313,308.452435 1299.19766,309.908885 1300.80919,314.573294 C1301.61811,317.021637 1299.62108,321.491434 1300.80919,323.607054 L1302.32592,323.607054 C1308.39285,326.670622 1312.70922,332.703592 1317.49324,337.167111 C1319.05422,336.463997 1321.85385,337.782335 1323.56017,337.167111 C1327.26353,335.898994 1328.05982,328.13335 1337.21077,331.146696 C1338.30408,331.523365 1340.09888,334.907101 1341.75465,335.666715 C1340.33903,337.97067 1341.66617,341.216294 1340.24423,343.193803 C1339.53643,344.141751 1331.85165,347.387376 1331.14384,349.220494 C1330.48027,350.871557 1332.08548,352.284063 1331.14384,353.740513 C1345.41376,357.463251 1348.10596,356.804082 1346.30484,373.33354 C1351.43014,376.528942 1356.40376,377.382724 1361.47849,380.860627 C1363.04578,381.990632 1362.71084,384.212975 1364.50564,385.386924 C1363.41864,392.449454 1361.57329,401.815937 1367.54542,404.973673 C1378.63653,410.862253 1382.09342,401.489492 1387.26295,400.453654 C1393.61426,399.229482 1394.37263,402.80783 1397.87375,403.467 C1397.50089,407.089293 1399.72543,405.915343 1399.39681,409.487414 C1399.25145,410.906198 1396.0284,414.296212 1396.36334,417.020779 C1396.4139,417.730171 1400.76819,421.258297 1400.91354,421.540798 C1401.57711,423.33625 1400.05406,424.416032 1400.91354,426.067095 C1398.49309,427.190822 1394.41687,429.174608 1391.80682,430.580836 C1396.22431,440.091709 1395.65553,443.349889 1391.80682,453.187208 C1396.74252,450.500308 1401.57711,447.857353 1406.98047,445.653843 C1406.60129,445.603621 1414.61469,445.503176 1416.08087,445.653843 C1417.21842,448.240299 1421.85709,462.50347 1423.65821,463.733919 C1427.55116,466.508709 1433.18835,464.292644 1437.31512,466.740988 C1440.53186,468.724774 1438.59803,475.272523 1437.31512,474.274352 C1437.97237,476.728974 1436.51252,479.503763 1437.31512,481.813995 C1437.50471,482.466887 1440.01364,483.270446 1440.34227,484.821063 C1452.29286,483.923337 1454.08766,484.821063 1461.57652,487.834409 C1462.76463,498.669899 1462.85943,503.18364 1455.50959,508.934109 C1454.75123,509.492834 1451.2501,511.099951 1450.96572,511.941177 C1449.82185,515.237024 1451.48393,519.053929 1450.96572,522.487888 C1453.37985,523.191002 1453.42409,521.263716 1453.99918,523.994561 C1456.50811,522.908501 1459.02336,525.124566 1461.57652,523.994561 C1463.523,523.147057 1462.85943,517.647701 1464.61631,516.467474 C1473.52079,510.440782 1484.85205,514.577855 1487.3673,522.487888 C1489.16842,528.326246 1486.55838,528.181856 1485.84425,533.034599 L1482.8171,533.034599 L1484.33383,545.094261 C1478.93047,544.717592 1478.07731,544.855704 1475.23344,545.094261 C1474.27916,547.680716 1476.13084,550.085115 1475.23344,552.621348 C1474.85426,553.613241 1471.25202,554.743246 1470.67692,555.634694 C1469.06539,558.221149 1470.49365,560.299102 1469.16651,563.168059 C1470.82227,564.065785 1471.90927,567.267465 1473.71039,567.688078 C1474.7089,567.970579 1477.26839,567.028908 1478.26058,567.688078 C1481.0539,569.715808 1482.67175,577.155006 1485.84425,578.234789 C1489.2569,579.509183 1495.7978,578.090399 1499.49484,578.234789 C1501.86474,586.383378 1504.61381,592.880906 1507.08482,599.32821 C1505.94095,600.081547 1505.46698,604.557621 1504.05136,605.354902 C1501.10637,607.049909 1497.21974,606.911798 1494.95096,608.368248 C1486.07808,614.018272 1504.90452,618.444124 1508.59524,621.934583 C1510.01717,623.340811 1508.59524,626.542491 1510.11829,627.954997 C1508.4562,628.331665 1489.49704,632.098348 1488.88403,632.481294 C1488.07511,632.996074 1483.70818,644.252177 1482.8171,646.035073 C1490.39444,648.483417 1491.3424,650.084257 1496.46138,653.568438 C1494.23683,655.545946 1494.37587,659.262406 1491.9175,661.101803 C1489.78143,662.702643 1488.44797,661.855139 1485.84425,662.608476 C1485.8948,662.890977 1484.71302,668.120388 1484.33383,670.148119 C1489.07362,672.357906 1492.47995,673.908523 1496.46138,676.168533 C1495.65877,678.334375 1497.21974,681.586278 1496.46138,683.701898 C1496.08219,684.687513 1492.47995,685.823796 1491.9175,686.715244 C1489.87623,689.967146 1488.59964,695.755282 1487.3673,698.768628 C1486.55838,696.276339 1485.84425,703.288647 1485.84425,703.288647 C1492.34724,707.049051 1487.60745,715.907033 1479.77732,715.34203 L1476.75017,712.328684 C1473.85574,710.916179 1471.72599,710.445343 1469.16651,709.315338 C1469.11595,709.08306 1468.9706,699.521964 1469.16651,700.275301 C1470.06391,698.398237 1473.00258,697.21801 1473.71039,695.755282 C1475.23344,692.553602 1474.27916,689.540256 1475.23344,686.715244 C1471.85871,689.634423 1469.20443,691.235263 1466.13304,694.248609 C1463.523,693.35716 1461.10887,695.196557 1458.54306,694.248609 C1456.65346,693.639662 1454.32781,687.380691 1452.47613,686.715244 C1449.8724,685.823796 1447.45195,687.663192 1444.89879,686.715244 C1444.70919,687.04169 1443.38205,689.734867 1443.38205,689.734867 C1442.61737,687.418358 1441.86532,695.47278 1441.86532,695.755282 C1442.19395,696.044061 1446.27016,698.435904 1446.41552,698.768628 C1447.50251,702.585532 1444.56384,704.512818 1444.89879,706.301993 L1441.86532,706.301993 C1439.82405,705.642823 1437.87758,698.674461 1435.79207,697.261955 C1434.75564,696.602785 1432.29095,697.550734 1431.24819,697.261955 C1430.20544,697.029676 1426.27457,693.118604 1425.18126,692.741936 C1416.08087,689.866701 1407.78939,689.734867 1396.36334,689.734867 C1393.6585,684.128788 1393.85441,684.310845 1391.80682,676.168533 C1391.57299,676.168533 1387.26295,676.2627 1387.26295,676.168533 C1386.93432,679.797104 1385.74621,686.9538 1385.74621,692.741936 C1389.15254,693.922163 1390.44176,693.44505 1394.84661,694.248609 C1394.32207,701.028637 1394.32207,709.127004 1391.80682,716.848703 C1398.96707,715.530365 1399.68119,714.588694 1406.98047,716.848703 L1408.4972,719.862049 C1411.10093,720.897887 1416.3147,719.862049 1419.11433,719.862049 C1418.82994,721.274555 1421.19984,722.831451 1420.62474,725.888741 C1419.43664,732.197934 1410.67751,737.942125 1406.98047,742.462144 C1405.36894,740.252357 1407.03103,738.695462 1405.46374,736.435452 C1404.27563,734.78439 1402.52507,736.196896 1400.91354,734.928779 C1399.11242,733.61044 1397.78528,729.234811 1396.36334,727.395414 C1396.07263,727.822305 1392.23656,728.481474 1391.80682,728.902087 C1390.486,730.176482 1390.86519,732.951271 1390.29641,734.928779 C1388.67856,735.261503 1387.87596,737.753791 1387.26295,737.942125 C1381.61944,739.869411 1378.54173,735.964617 1375.12908,734.928779 L1373.61235,736.435452 C1374.13689,745.519435 1373.08782,746.655717 1372.0893,753.008855 C1370.90751,753.008855 1367.0272,752.399908 1366.02869,753.008855 C1364.79634,751.081569 1360.76436,749.474451 1359.95544,746.982163" id="path3850"></path>
                    <path d="M868.553024,554.134299 C871.106191,548.666331 871.011395,539.908794 882.197298,543.58131 C883.29061,543.957978 885.09173,547.35427 886.747496,548.107607 C886.747496,550.267171 886.033368,553.707408 886.747496,555.634694 C885.325559,556.720754 881.767557,561.240773 880.674246,561.661386 C879.01848,562.320555 877.596543,560.725993 876.130368,561.661386 C874.04486,559.169097 870.67645,556.770976 868.553024,554.134299" id="path3838"></path>
                    <path d="M901.914823,429.074163 C902.382482,428.421271 901.914823,425.313758 901.914823,424.554144 C903.526351,423.807085 906.509258,420.360571 907.981753,420.040403 C924.191833,416.41811 917.600366,431.616673 915.565416,436.607528 C914.231955,436.607528 910.636035,436.042525 909.492166,436.607528 C907.60257,434.209407 903.7665,431.579007 901.914823,429.074163" id="path3836"></path>
                    <path d="M886.747496,311.55367 C887.411067,308.967215 886.747496,305.250754 886.747496,302.51991 C901.725231,298.753227 896.227075,294.8861 900.39809,310.053275 C899.026711,311.133057 897.838604,311.03889 897.364625,313.066621 C894.849376,313.819957 893.288406,313.349122 891.291374,314.573294 C890.962749,313.719512 887.651216,312.263062 886.747496,311.55367" id="path3834"></path>
                    <path d="M105.642829,258.826393 C107.823133,258.211168 113.984859,250.34508 105.642829,252.799701 C103.557322,253.408648 101.421257,260.044287 105.642829,258.826393" id="path3828"></path>
                    <path d="M119.287103,258.826393 C119.527253,257.978889 123.552914,256.704495 123.843621,255.813047 C124.646225,253.082202 123.793063,252.046365 122.320569,251.293028 C122.320569,251.293028 124.880055,244.042164 125.354034,242.25299 C123.129493,243.803608 121.991943,242.962382 119.287103,243.759663 C118.90792,245.737171 116.44323,247.149677 116.253638,248.273404 C115.451034,252.567422 118.813124,256.189715 119.287103,258.826393" id="path22"></path>
                </g>
            </g>
            <g id="Georgia_Tech_Outline_Interlocking_logo" transform="translate(649.184277, 721.120577)" stroke="#00254C" stroke-width="2.25" fill="#C59353">
                <g id="g11" transform="translate(866.518540, 539.277499) scale(1, -1) translate(-866.518540, -539.277499) translate(0.374339, 1.346464)">
                    <path d="M696.027664,468.132478 L827.647805,468.132478 L841.687286,548.784516 L924.169241,548.784516 C901.355083,401.506882 748.675721,310.335014 576.692071,324.361455 C406.463356,336.634591 246.764253,433.066375 246.764253,597.87706 C248.519188,774.960882 401.19855,893.834972 571.427265,901.198853 C680.233248,906.458769 794.304036,862.62614 873.27612,796.000544 C882.050796,790.740628 876.78599,796.000544 885.560666,787.234018 L1041.7499,787.234018 L1041.7499,1074.77606 L889.070537,1074.77606 L889.070537,973.084365 L887.315602,973.084365 C810.098453,1027.43682 680.233248,1071.26945 541.593367,1071.26945 C252.029058,1071.26945 -2.4365463,845.093088 1.0733241,596.123755 C4.58319451,340.141201 274.843216,152.537549 562.652589,175.330516 C697.7826,185.850347 818.873129,219.163145 901.355083,266.502385 L901.355083,224.423061 L1064.56406,224.423061 L1064.56406,548.784516 L1143.53614,548.784516 L1143.53614,156.044159 L1048.76964,156.044159 L1048.76964,1.75330516 L1451.87826,1.75330516 L1451.87826,156.044159 L1357.63824,156.044159 L1357.63824,548.784516 L1585.77981,548.784516 L1599.81929,468.132478 L1731.43943,468.132478 L1731.43943,722.361727 L696.027664,722.361727 L696.027664,468.132478 L696.027664,468.132478 Z" id="Shape"></path>
                </g>
            </g>
        </g>
    </g>
</svg>